<?xml version="1.0" encoding="UTF-8" standalone="no"?>
<svg
   xmlns:dc="http://purl.org/dc/elements/1.1/"
   xmlns:cc="http://creativecommons.org/ns#"
   xmlns:rdf="http://www.w3.org/1999/02/22-rdf-syntax-ns#"
   xmlns:svg="http://www.w3.org/2000/svg"
   xmlns="http://www.w3.org/2000/svg"
   xmlns:sodipodi="http://sodipodi.sourceforge.net/DTD/sodipodi-0.dtd"
   xmlns:inkscape="http://www.inkscape.org/namespaces/inkscape"
   width="280px"
   height="185px"
   viewBox="0 0 280 185"
   version="1.1"
   id="SVGRoot"
   sodipodi:docname="logo_new2.svg"
   inkscape:version="1.0.2-2 (e86c870879, 2021-01-15)">
  <defs
     id="defs6712">
    <rect
       x="29.88875"
       y="133.26226"
       width="189.39696"
       height="51.023454"
       id="rect2440" />
  </defs>
  <sodipodi:namedview
     id="base"
     pagecolor="#ffffff"
     bordercolor="#666666"
     borderopacity="1.0"
     inkscape:pageopacity="0.0"
     inkscape:pageshadow="2"
     inkscape:zoom="1.4"
     inkscape:cx="200.87915"
     inkscape:cy="92.024788"
     inkscape:document-units="px"
     inkscape:current-layer="layer1"
     inkscape:document-rotation="0"
     showgrid="false"
     inkscape:window-width="1376"
     inkscape:window-height="900"
     inkscape:window-x="58"
     inkscape:window-y="0"
     inkscape:window-maximized="0" />
  <metadata
     id="metadata6715">
    <rdf:RDF>
      <cc:Work
         rdf:about="">
        <dc:format>image/svg+xml</dc:format>
        <dc:type
           rdf:resource="http://purl.org/dc/dcmitype/StillImage" />
        <dc:title></dc:title>
      </cc:Work>
    </rdf:RDF>
  </metadata>
  <g
     inkscape:label="Vrstva 1"
     inkscape:groupmode="layer"
     id="layer1">
    <g
       aria-label="Kavárna s příběhem"
       transform="matrix(0.78150172,0.00546273,-0.00184984,1.2795748,0,0)"
       id="text48"
       style="font-style:normal;font-weight:normal;font-size:48.7922px;line-height:1.25;font-family:sans-serif;fill:#000000;fill-opacity:1;stroke:none;stroke-width:1.2198">
      <path
         d="m 42.994206,89.138819 q -0.357364,0.500311 -0.690905,1.167392 -0.309716,0.643256 -0.571783,1.500932 -0.262068,0.857675 -0.428838,1.977418 -0.16677,1.095918 -0.214419,2.477729 -0.04765,1.286513 -0.0953,2.573026 -0.02383,1.286514 -0.0953,2.573024 0.119121,-0.0238 0.381189,-0.0238 1.21504,0 2.739796,0.38119 1.524756,0.35736 3.14481,1.09592 2.191837,-0.57179 3.859539,-1.50094 1.691526,-0.92915 2.978039,-2.072712 1.310337,-1.167392 2.310959,-2.477729 1.024445,-1.334162 1.882121,-2.668323 0.857675,-1.334162 1.620053,-2.620675 0.762378,-1.310337 1.596229,-2.406256 0.857676,-1.143567 1.953594,-2.168013 1.119743,-1.024445 2.287134,-1.762999 1.191216,-0.762378 2.382432,-1.191216 1.191216,-0.452662 2.239486,-0.452662 0.357364,0 0.643256,0.238243 0.309716,0.214419 0.309716,0.619433 0,0.381189 -0.262067,0.643256 -0.238243,0.262068 -0.619432,0.285892 -0.71473,0.02382 -1.691527,0.381189 -0.952973,0.357365 -1.977418,1.000621 -1.024446,0.643257 -2.025067,1.524756 -1.000621,0.8815 -1.810648,1.977419 -0.929148,1.262688 -1.739175,2.573026 -0.786202,1.310337 -1.620053,2.59685 -0.810027,1.262689 -1.739175,2.501553 -0.929149,1.21504 -2.120364,2.334787 -1.191216,1.09591 -2.739797,2.07271 -1.524756,0.9768 -3.549823,1.763 1.691527,1.0721 3.263931,2.69215 1.572405,1.59623 3.406878,3.57365 1.524756,1.64387 2.858917,3.09716 1.357986,1.45328 2.620675,2.5492 1.286513,1.07209 2.477729,1.69153 1.21504,0.61943 2.453904,0.61943 1.524757,0 2.930391,-0.78621 1.405635,-0.81002 2.382432,-2.33478 0.262067,-0.40501 0.762378,-0.40501 0.405013,0 0.643256,0.28589 0.262068,0.28589 0.262068,0.61943 0,0.26207 -0.142946,0.47649 -1.21504,1.92977 -3.025688,2.95421 -1.810648,1.00063 -3.788066,1.00063 -1.524756,0 -2.930391,-0.64326 -1.405635,-0.66708 -2.811269,-1.81065 -1.405635,-1.16739 -2.882742,-2.71597 -1.477108,-1.57241 -3.14481,-3.38305 -1.095919,-1.1674 -2.072716,-2.19184 -0.952972,-1.02445 -1.88212,-1.8583 -0.905324,-0.85767 -1.834473,-1.52475 -0.929148,-0.69091 -1.929769,-1.19122 -1.286513,0.30972 -2.477729,0.42884 -1.191216,0.11912 -2.191837,0.11912 -0.476486,0 -0.8815,-0.0238 -0.405013,-0.0238 -0.738554,-0.0953 -0.190594,2.09654 -0.571783,4.05013 -0.357365,1.92977 -0.976797,3.64512 -0.619432,1.69153 -1.572405,3.09716 -0.929148,1.40564 -2.287134,2.40626 -1.334162,1.00062 -3.168634,1.54858 -1.810648,0.57178 -4.19308,0.57178 -1.357986,0 -2.692147,-0.23824 -1.310338,-0.21442 -2.549202,-0.66708 -1.21504,-0.42884 -2.334783,-1.04827 -1.095919,-0.64326 -1.977418,-1.45328 -0.285892,-0.23825 -0.285892,-0.66709 0,-0.35736 0.262067,-0.61943 0.262068,-0.28589 0.619433,-0.28589 0.381189,0 0.619432,0.23824 1.54858,1.40564 3.740417,2.19184 2.191837,0.76238 4.598093,0.76238 3.025688,0 5.026931,-1.02445 2.025067,-1.02444 3.263931,-2.88274 1.238864,-1.88212 1.858297,-4.47897 0.619432,-2.62067 0.881499,-5.81313 -0.285891,-0.26207 -0.428837,-0.54796 -0.119122,-0.30972 -0.119122,-0.64326 0,-0.81003 0.738554,-1.33416 0.07147,-1.40563 0.0953,-2.858918 0.04765,-1.477108 0.0953,-3.025688 0.04765,-2.453905 0.524135,-4.121607 0.476487,-1.667702 1.04827,-2.811269 -1.191216,0.04765 -2.501553,-0.07147 -1.310337,-0.142946 -2.668323,-0.309716 -1.357986,-0.16677 -2.715972,-0.309716 -1.357986,-0.16677 -2.644499,-0.16677 -1.643878,0 -3.097161,0.476486 -1.453284,0.476486 -2.549202,1.357986 -1.072094,0.857675 -1.691526,2.072715 -0.619433,1.21504 -0.619433,2.668324 0,1.262688 0.524135,2.072715 0.54796,0.810027 1.21504,1.310338 0.667081,0.476486 1.21504,0.66708 0.571784,0.190595 0.643257,0.214419 0.309716,0.07147 0.500311,0.333541 0.190594,0.238243 0.190594,0.547963 0,0.40501 -0.285892,0.64325 -0.285891,0.23825 -0.619432,0.23825 -0.142946,0 -0.214419,-0.0238 -0.667081,-0.14294 -1.524756,-0.57178 -0.857675,-0.42884 -1.620053,-1.14357 -0.762378,-0.738553 -1.286513,-1.786823 -0.524135,-1.072094 -0.524135,-2.501553 0,-1.858297 0.762378,-3.383053 0.762378,-1.548581 2.072715,-2.644499 1.334162,-1.119743 3.097161,-1.715351 1.786824,-0.619432 3.788066,-0.619432 1.548581,0 3.14481,0.16677 1.596229,0.16677 3.120985,0.357365 1.524757,0.16677 2.906567,0.309716 1.405635,0.119122 2.573026,0.02382 0.452662,-0.571783 1.095918,-1.119743 0.643257,-0.547959 1.357986,-0.952972 0.738554,-0.428838 1.477108,-0.690905 0.762378,-0.262068 1.477108,-0.262068 0.762378,0 1.310337,0.476487 0.547959,0.452662 0.547959,1.167391 0,0.571784 -0.524135,1.095919 -0.50031,0.524134 -1.38181,0.952972 -0.857675,0.428838 -2.025067,0.71473 -1.143567,0.285891 -2.406256,0.357364 z m 1.477108,14.389891 q -0.214419,-0.0715 -0.571784,-0.14295 -0.357364,-0.0953 -0.786202,-0.16677 -0.428838,-0.0715 -0.905324,-0.11912 -0.476486,-0.0476 -0.929148,-0.0476 -0.119122,0 -0.238244,0.0238 -0.0953,0 -0.214418,0.0238 -0.02383,0.11912 -0.02383,0.26207 0,0.11912 -0.02382,0.23824 0.357365,0.0953 1.286513,0.0953 0.142946,0 0.452662,0 0.309716,0 0.667081,-0.0238 0.381189,-0.0238 0.714729,-0.0477 0.357365,-0.0238 0.571784,-0.0953 z m 3.073337,-17.701471 q -0.238244,0 -0.643257,0.119122 -0.381189,0.119122 -0.833851,0.33354 -0.428838,0.214419 -0.8815,0.476487 -0.452662,0.262067 -0.810026,0.547959 0.619432,-0.04765 1.262688,-0.285892 0.667081,-0.238243 1.167392,-0.50031 0.50031,-0.262068 0.714729,-0.476487 0.238243,-0.214419 0.02383,-0.214419 z"
         style="font-style:normal;font-variant:normal;font-weight:normal;font-stretch:normal;font-size:48.7922px;font-family:Sacramento;-inkscape-font-specification:'Sacramento, Normal';font-variant-ligatures:normal;font-variant-caps:normal;font-variant-numeric:normal;font-variant-east-asian:normal;text-align:center;text-anchor:middle;stroke-width:1.2198"
         id="path2405" />
      <path
         d="m 93.668524,112.84401 q -0.0953,0.1906 -0.405014,0.81003 -0.285891,0.59561 -0.762378,1.38181 -0.452662,0.7862 -1.072094,1.64388 -0.619432,0.85767 -1.38181,1.5724 -0.762378,0.71473 -1.643878,1.19122 -0.8815,0.45266 -1.858297,0.45266 -1.38181,0 -2.334783,-0.8815 -0.929148,-0.8815 -1.357985,-2.21566 -0.810027,1.35799 -1.92977,2.16801 -1.119743,0.7862 -2.239486,0.7862 -0.881499,0 -1.596229,-0.30971 -0.714729,-0.33354 -1.21504,-0.90533 -0.500311,-0.5956 -0.786202,-1.38181 -0.262068,-0.7862 -0.262068,-1.71535 0,-1.85829 0.619432,-3.26393 0.643257,-1.42946 1.620054,-2.38243 0.976797,-0.95297 2.144188,-1.42946 1.191216,-0.47648 2.287135,-0.47648 0.738553,0 1.357986,0.21441 0.619432,0.1906 1.048269,0.42884 0.452662,0.23825 0.690906,0.45266 0.238243,0.1906 0.262067,0.21442 0.262067,0.30972 0.262067,0.64326 0,0.35736 -0.262067,0.64326 -0.262067,0.26206 -0.619432,0.26206 -0.381189,0 -0.643257,-0.26206 -0.04765,-0.0477 -0.214419,-0.16677 -0.16677,-0.14295 -0.452662,-0.2859 -0.285891,-0.14294 -0.690905,-0.23824 -0.381189,-0.11912 -0.881499,-0.11912 -0.738554,0 -1.572405,0.33354 -0.833851,0.33354 -1.524756,1.04827 -0.690906,0.6909 -1.167392,1.763 -0.452662,1.04827 -0.452662,2.50155 0,0.45266 0.0953,0.92915 0.0953,0.45266 0.333541,0.83385 0.238243,0.38119 0.643256,0.61943 0.405014,0.23825 1.000622,0.23825 0.428837,0 0.976797,-0.28589 0.571783,-0.2859 1.072094,-0.8815 0.524135,-0.59561 0.929148,-1.50094 0.428838,-0.90532 0.595608,-2.14418 0.04765,-0.33355 0.309716,-0.54796 0.262068,-0.23825 0.619432,-0.23825 0.333541,0 0.571784,0.26207 0.262067,0.26207 0.285892,0.59561 0.02382,0.45266 0.0953,1.28651 0.07147,0.81003 0.309716,1.62005 0.262067,0.81003 0.762378,1.40564 0.500311,0.59561 1.38181,0.59561 0.571784,0 1.119743,-0.30972 0.571784,-0.30972 1.095919,-0.81003 0.547959,-0.52413 1.024445,-1.16739 0.500311,-0.66708 0.905324,-1.33416 0.405014,-0.66708 0.71473,-1.28651 0.309716,-0.61943 0.524135,-1.0721 0.119121,-0.26206 0.33354,-0.40501 0.238243,-0.14295 0.500311,-0.14295 0.405013,0 0.643256,0.30972 0.262068,0.28589 0.262068,0.61943 0,0.16677 -0.07147,0.33354 z"
         style="font-style:normal;font-variant:normal;font-weight:normal;font-stretch:normal;font-size:48.7922px;font-family:Sacramento;-inkscape-font-specification:'Sacramento, Normal';font-variant-ligatures:normal;font-variant-caps:normal;font-variant-numeric:normal;font-variant-east-asian:normal;text-align:center;text-anchor:middle;stroke-width:1.2198"
         id="path2407" />
      <path
         d="m 101.6735,111.98634 q -0.35737,1.6677 -1.02445,3.12098 -0.667081,1.42946 -1.429459,2.50156 -0.738554,1.07209 -1.500932,1.69152 -0.762378,0.61943 -1.310337,0.66708 -0.619432,0 -1.381811,-0.61943 -0.738553,-0.61943 -1.429459,-1.71535 -0.66708,-1.11974 -1.119742,-2.6445 -0.452662,-1.52475 -0.452662,-3.31158 0,-1.5724 0.262067,-2.38243 0.285892,-0.81003 0.357365,-0.92915 0.119121,-0.21442 0.309716,-0.33354 0.214419,-0.11912 0.476486,-0.11912 0.405014,0 0.643257,0.28589 0.238243,0.26207 0.238243,0.59561 0,0.23824 -0.0953,0.40501 -0.02383,0.0476 -0.214419,0.64326 -0.190595,0.59561 -0.190595,1.78682 0,1.40564 0.285892,2.59685 0.285892,1.19122 0.690905,2.04889 0.405014,0.85768 0.833851,1.35799 0.452662,0.47649 0.738554,0.47649 0.190595,0 0.547959,-0.35737 0.381189,-0.35736 0.786203,-0.97679 0.428837,-0.61944 0.857675,-1.47711 0.452662,-0.85768 0.810027,-1.8583 0.381189,-1.02444 0.595608,-2.14419 0.238245,-1.14356 0.238245,-2.31096 0,-0.23824 -0.0238,-0.45266 0,-0.23824 0,-0.47648 0,-0.40502 0.23825,-0.66708 0.26206,-0.2859 0.66708,-0.2859 0.30971,0 0.54796,0.1906 0.26206,0.19059 0.33354,0.52413 0,-0.0238 0.0953,0.38119 0.0953,0.40502 0.30972,1.04827 0.23824,0.61943 0.57178,1.35799 0.35737,0.73855 0.83386,1.38181 0.50031,0.61943 1.14356,1.04827 0.64326,0.42884 1.47711,0.42884 0.45266,0 0.7862,-0.1906 0.33354,-0.19059 0.54796,-0.42884 0.21442,-0.23824 0.30972,-0.45266 0.11912,-0.21442 0.11912,-0.23824 0.0953,-0.26207 0.30972,-0.40502 0.23824,-0.16677 0.52413,-0.16677 0.38119,0 0.64326,0.2859 0.26206,0.26206 0.26206,0.61943 0,0.16677 -0.0715,0.33354 -0.14294,0.33354 -0.42884,0.76238 -0.26206,0.42883 -0.6909,0.81002 -0.42884,0.38119 -1.02445,0.64326 -0.57178,0.23824 -1.28651,0.23824 -0.83385,0 -1.54858,-0.28589 -0.71473,-0.30971 -1.31034,-0.76238 -0.57178,-0.47648 -1.04827,-1.04827 -0.47648,-0.5956 -0.81002,-1.19121 z"
         style="font-style:normal;font-variant:normal;font-weight:normal;font-stretch:normal;font-size:48.7922px;font-family:Sacramento;-inkscape-font-specification:'Sacramento, Normal';font-variant-ligatures:normal;font-variant-caps:normal;font-variant-numeric:normal;font-variant-east-asian:normal;text-align:center;text-anchor:middle;stroke-width:1.2198"
         id="path2409" />
      <path
         d="m 126.59373,112.84401 q -0.0953,0.1906 -0.40501,0.81003 -0.2859,0.59561 -0.76238,1.38181 -0.45266,0.7862 -1.0721,1.64388 -0.61943,0.85767 -1.38181,1.5724 -0.76238,0.71473 -1.64387,1.19122 -0.8815,0.45266 -1.8583,0.45266 -1.38181,0 -2.33478,-0.8815 -0.92915,-0.8815 -1.35799,-2.21566 -0.81003,1.35799 -1.92977,2.16801 -1.11974,0.7862 -2.23949,0.7862 -0.8815,0 -1.59622,-0.30971 -0.71473,-0.33354 -1.21504,-0.90533 -0.50032,-0.5956 -0.78621,-1.38181 -0.26206,-0.7862 -0.26206,-1.71535 0,-1.85829 0.61943,-3.26393 0.64325,-1.42946 1.62005,-2.38243 0.9768,-0.95297 2.14419,-1.42946 1.19122,-0.47648 2.28713,-0.47648 0.73856,0 1.35799,0.21441 0.61943,0.1906 1.04827,0.42884 0.45266,0.23825 0.6909,0.45266 0.23825,0.1906 0.26207,0.21442 0.26207,0.30972 0.26207,0.64326 0,0.35736 -0.26207,0.64326 -0.26207,0.26206 -0.61943,0.26206 -0.38119,0 -0.64326,-0.26206 -0.0477,-0.0477 -0.21442,-0.16677 -0.16677,-0.14295 -0.45266,-0.2859 -0.28589,-0.14294 -0.6909,-0.23824 -0.38119,-0.11912 -0.8815,-0.11912 -0.73856,0 -1.57241,0.33354 -0.83385,0.33354 -1.52475,1.04827 -0.69091,0.6909 -1.16739,1.763 -0.45267,1.04827 -0.45267,2.50155 0,0.45266 0.0953,0.92915 0.0953,0.45266 0.33354,0.83385 0.23824,0.38119 0.64326,0.61943 0.40501,0.23825 1.00062,0.23825 0.42884,0 0.9768,-0.28589 0.57178,-0.2859 1.07209,-0.8815 0.52413,-0.59561 0.92915,-1.50094 0.42884,-0.90532 0.59561,-2.14418 0.0476,-0.33355 0.30971,-0.54796 0.26207,-0.23825 0.61943,-0.23825 0.33354,0 0.57179,0.26207 0.26207,0.26207 0.28589,0.59561 0.0238,0.45266 0.0953,1.28651 0.0715,0.81003 0.30971,1.62005 0.26207,0.81003 0.76238,1.40564 0.50031,0.59561 1.38181,0.59561 0.57179,0 1.11974,-0.30972 0.57179,-0.30972 1.09592,-0.81003 0.54796,-0.52413 1.02445,-1.16739 0.50031,-0.66708 0.90532,-1.33416 0.40502,-0.66708 0.71473,-1.28651 0.30972,-0.61943 0.52414,-1.0721 0.11912,-0.26206 0.33354,-0.40501 0.23824,-0.14295 0.50031,-0.14295 0.40501,0 0.64325,0.30972 0.26207,0.28589 0.26207,0.61943 0,0.16677 -0.0715,0.33354 z m -14.05635,-8.6244 3.81189,-3.62129 q 0.23825,-0.21442 0.54796,-0.21442 0.30972,0 0.54796,0.23824 0.23824,0.23824 0.23824,0.57178 0,0.33354 -0.23824,0.54796 l -3.81189,3.6213 q -0.26207,0.21442 -0.54796,0.21442 -0.33354,0 -0.57178,-0.23825 -0.21442,-0.23824 -0.21442,-0.54796 0,-0.33354 0.23824,-0.57178 z"
         style="font-style:normal;font-variant:normal;font-weight:normal;font-stretch:normal;font-size:48.7922px;font-family:Sacramento;-inkscape-font-specification:'Sacramento, Normal';font-variant-ligatures:normal;font-variant-caps:normal;font-variant-numeric:normal;font-variant-east-asian:normal;text-align:center;text-anchor:middle;stroke-width:1.2198"
         id="path2411" />
      <path
         d="m 127.4514,109.6992 q -0.0953,0.64326 -0.23824,1.21504 -0.14295,0.54796 -0.28589,0.9768 -0.11912,0.40501 -0.21442,0.66708 -0.0953,0.26207 -0.11912,0.28589 -0.23825,0.54796 -0.83385,0.54796 -0.33354,0 -0.61944,-0.23824 -0.28589,-0.26207 -0.28589,-0.64326 0,-0.14294 0.0476,-0.21442 0.0477,-0.0715 0.14295,-0.28589 0.0953,-0.21442 0.23824,-0.71473 0.14295,-0.50031 0.35736,-1.54858 -0.40501,0 -0.83385,-0.0238 -0.42883,-0.0238 -0.7862,-0.16677 -0.38119,-0.14295 -0.61943,-0.45266 -0.23824,-0.30972 -0.23824,-0.85768 0,-0.40501 0.23824,-1.09592 0.21442,-0.6909 0.59561,-1.35798 0.38119,-0.66708 0.85767,-1.14357 0.47649,-0.50031 0.95297,-0.50031 0.54796,0 0.8815,0.40501 0.35737,0.40501 0.54796,1.00062 0.1906,0.57179 0.26207,1.21504 0.0953,0.64326 0.0953,1.11975 0.40501,0 0.7862,0 0.40501,-0.0238 0.76238,-0.0238 1.35798,0 2.07271,0.59561 0.71473,0.59561 0.71473,1.95359 0,0.54796 -0.0715,1.14357 -0.0715,0.59561 -0.16677,1.23886 -0.0953,0.61944 -0.16677,1.23887 -0.0715,0.61943 -0.0715,1.21504 0,0.85767 0.23824,1.42946 0.23824,0.54796 0.59561,0.8815 0.35736,0.33354 0.76238,0.47648 0.40501,0.11913 0.73855,0.11913 1.02445,0 1.92977,-0.66709 0.90532,-0.66708 1.6677,-1.59622 0.76238,-0.95298 1.35799,-2.00125 0.61943,-1.04827 1.02444,-1.83447 0.11912,-0.21442 0.33354,-0.33354 0.21442,-0.11912 0.45267,-0.11912 0.42883,0 0.66708,0.28589 0.23824,0.26207 0.23824,0.59561 0,0.23824 -0.0953,0.42884 -0.54796,0.97679 -1.28651,2.21566 -0.71473,1.21504 -1.64388,2.28713 -0.92915,1.0721 -2.09654,1.81065 -1.14357,0.73855 -2.52538,0.73855 -0.85767,0 -1.62005,-0.33354 -0.76238,-0.30971 -1.33416,-0.90532 -0.54796,-0.61943 -0.8815,-1.50093 -0.33354,-0.90533 -0.33354,-2.02507 0,-1.19122 0.23824,-2.35861 0.23825,-1.19121 0.23825,-2.26331 0,-0.45266 -0.21442,-0.66708 -0.1906,-0.23824 -0.8815,-0.23824 -0.33354,0 -0.73856,0 -0.38119,0 -0.83385,0.0238 z m -1.59623,-1.763 q 0,-0.16677 -0.0238,-0.42883 0,-0.2859 -0.0477,-0.54796 -0.0238,-0.26207 -0.0953,-0.45266 -0.0477,-0.1906 -0.11912,-0.1906 -0.0715,0 -0.19059,0.1906 -0.0953,0.16677 -0.21442,0.42883 -0.11912,0.23825 -0.21442,0.52414 -0.0953,0.28589 -0.14295,0.47648 z"
         style="font-style:normal;font-variant:normal;font-weight:normal;font-stretch:normal;font-size:48.7922px;font-family:Sacramento;-inkscape-font-specification:'Sacramento, Normal';font-variant-ligatures:normal;font-variant-caps:normal;font-variant-numeric:normal;font-variant-east-asian:normal;text-align:center;text-anchor:middle;stroke-width:1.2198"
         id="path2413" />
      <path
         d="m 145.03375,117.34681 q 0.38119,-0.7862 0.8815,-1.71535 0.50031,-0.95297 1.07209,-1.90595 0.57178,-0.97679 1.19122,-1.92977 0.64325,-0.95297 1.33416,-1.81064 0.6909,-0.83386 1.38181,-1.19122 0.71473,-0.38119 1.33416,-0.38119 1.23886,0 1.83447,0.90532 0.59561,0.90533 0.59561,2.23949 0,0.30972 -0.0477,0.76238 -0.0238,0.42884 -0.0715,0.92915 -0.0238,0.50031 -0.0715,1.02444 -0.0238,0.50031 -0.0238,0.95297 0,0.57179 0.0477,1.09592 0.0715,0.52414 0.23824,0.92915 0.16677,0.38119 0.47649,0.61943 0.30971,0.21442 0.81003,0.21442 0.90532,0 1.76299,-0.6909 0.85768,-0.71473 1.57241,-1.6677 0.73855,-0.9768 1.26269,-1.97742 0.54796,-1.00062 0.81003,-1.62006 0.11912,-0.26206 0.33354,-0.40501 0.23824,-0.14295 0.50031,-0.14295 0.40501,0 0.64325,0.30972 0.26207,0.28589 0.26207,0.61943 0,0.16677 -0.0715,0.33354 -0.0953,0.1906 -0.38119,0.78621 -0.28589,0.5956 -0.76238,1.38181 -0.45266,0.76237 -1.07209,1.64387 -0.61944,0.85768 -1.38181,1.57241 -0.73856,0.71473 -1.62006,1.19121 -0.85767,0.47649 -1.81065,0.47649 -1.07209,0 -1.73917,-0.40501 -0.66708,-0.42884 -1.04827,-1.09592 -0.38119,-0.69091 -0.52414,-1.50093 -0.11912,-0.83385 -0.11912,-1.66771 0,-0.35736 0.0238,-0.81002 0.0477,-0.45266 0.0953,-0.95297 0.0715,-0.50032 0.0953,-1.00063 0.0477,-0.50031 0.0477,-0.95297 0,-0.76238 -0.23824,-1.02444 -0.23825,-0.2859 -0.42884,-0.2859 -0.38119,0 -0.8815,0.45267 -0.47649,0.42883 -1.02445,1.14356 -0.52413,0.71473 -1.09591,1.62006 -0.54796,0.8815 -1.04827,1.763 -0.47649,0.8815 -0.90533,1.69152 -0.40501,0.78621 -0.64325,1.31034 -0.47649,1.00062 -0.95298,1.33416 -0.47648,0.35737 -0.97679,0.35737 -0.69091,0 -1.11975,-0.40502 -0.40501,-0.42883 -0.40501,-1.19121 0,-0.16677 0.0476,-0.64326 0.0477,-0.50031 0.11912,-1.16739 0.0715,-0.69091 0.14295,-1.47711 0.0715,-0.7862 0.14294,-1.54858 0.0715,-0.7862 0.11912,-1.45328 0.0477,-0.66708 0.0477,-1.11974 0,-0.59561 -0.0477,-1.14357 -0.0477,-0.54796 -0.19059,-0.66708 -0.21442,0.0715 -0.76238,0.90532 -0.54796,0.81003 -1.40563,2.88274 -0.11913,0.26207 -0.35737,0.40502 -0.23824,0.14294 -0.50031,0.14294 -0.40501,0 -0.64326,-0.26206 -0.23824,-0.2859 -0.23824,-0.64326 0,-0.16677 0.0715,-0.35737 1.0721,-2.5492 2.00125,-3.74041 0.95297,-1.21504 1.88212,-1.21504 0.54796,0 0.92915,0.28589 0.38118,0.26207 0.5956,0.71473 0.23825,0.45266 0.33354,1.00062 0.11913,0.54796 0.11913,1.11974 0,0.42884 -0.0715,1.33416 -0.0477,0.90533 -0.14294,1.9536 -0.0953,1.02444 -0.1906,2.04889 -0.0715,1.02444 -0.14294,1.71535 z"
         style="font-style:normal;font-variant:normal;font-weight:normal;font-stretch:normal;font-size:48.7922px;font-family:Sacramento;-inkscape-font-specification:'Sacramento, Normal';font-variant-ligatures:normal;font-variant-caps:normal;font-variant-numeric:normal;font-variant-east-asian:normal;text-align:center;text-anchor:middle;stroke-width:1.2198"
         id="path2415" />
      <path
         d="m 179.86489,112.84401 q -0.0953,0.1906 -0.40501,0.81003 -0.28589,0.59561 -0.76238,1.38181 -0.45266,0.7862 -1.07209,1.64388 -0.61943,0.85767 -1.38181,1.5724 -0.76238,0.71473 -1.64388,1.19122 -0.8815,0.45266 -1.8583,0.45266 -1.38181,0 -2.33478,-0.8815 -0.92915,-0.8815 -1.35799,-2.21566 -0.81002,1.35799 -1.92977,2.16801 -1.11974,0.7862 -2.23948,0.7862 -0.8815,0 -1.59623,-0.30971 -0.71473,-0.33354 -1.21504,-0.90533 -0.50031,-0.5956 -0.7862,-1.38181 -0.26207,-0.7862 -0.26207,-1.71535 0,-1.85829 0.61943,-3.26393 0.64326,-1.42946 1.62006,-2.38243 0.97679,-0.95297 2.14418,-1.42946 1.19122,-0.47648 2.28714,-0.47648 0.73855,0 1.35798,0.21441 0.61944,0.1906 1.04827,0.42884 0.45267,0.23825 0.69091,0.45266 0.23824,0.1906 0.26207,0.21442 0.26206,0.30972 0.26206,0.64326 0,0.35736 -0.26206,0.64326 -0.26207,0.26206 -0.61944,0.26206 -0.38119,0 -0.64325,-0.26206 -0.0476,-0.0477 -0.21442,-0.16677 -0.16677,-0.14295 -0.45266,-0.2859 -0.2859,-0.14294 -0.69091,-0.23824 -0.38119,-0.11912 -0.8815,-0.11912 -0.73855,0 -1.5724,0.33354 -0.83385,0.33354 -1.52476,1.04827 -0.6909,0.6909 -1.16739,1.763 -0.45266,1.04827 -0.45266,2.50155 0,0.45266 0.0953,0.92915 0.0953,0.45266 0.33355,0.83385 0.23824,0.38119 0.64325,0.61943 0.40501,0.23825 1.00062,0.23825 0.42884,0 0.9768,-0.28589 0.57178,-0.2859 1.07209,-0.8815 0.52414,-0.59561 0.92915,-1.50094 0.42884,-0.90532 0.59561,-2.14418 0.0477,-0.33355 0.30972,-0.54796 0.26206,-0.23825 0.61943,-0.23825 0.33354,0 0.57178,0.26207 0.26207,0.26207 0.28589,0.59561 0.0238,0.45266 0.0953,1.28651 0.0715,0.81003 0.30972,1.62005 0.26206,0.81003 0.76238,1.40564 0.50031,0.59561 1.38181,0.59561 0.57178,0 1.11974,-0.30972 0.57178,-0.30972 1.09592,-0.81003 0.54796,-0.52413 1.02444,-1.16739 0.50031,-0.66708 0.90533,-1.33416 0.40501,-0.66708 0.71473,-1.28651 0.30971,-0.61943 0.52413,-1.0721 0.11912,-0.26206 0.33354,-0.40501 0.23824,-0.14295 0.50031,-0.14295 0.40502,0 0.64326,0.30972 0.26207,0.28589 0.26207,0.61943 0,0.16677 -0.0715,0.33354 z"
         style="font-style:normal;font-variant:normal;font-weight:normal;font-stretch:normal;font-size:48.7922px;font-family:Sacramento;-inkscape-font-specification:'Sacramento, Normal';font-variant-ligatures:normal;font-variant-caps:normal;font-variant-numeric:normal;font-variant-east-asian:normal;text-align:center;text-anchor:middle;stroke-width:1.2198"
         id="path2417" />
      <path
         d="m 191.58645,110.676 q -0.14294,0.38119 -0.35736,0.85768 -0.1906,0.47648 -0.45267,1.00062 -0.21441,0.40501 -0.45266,0.64325 -0.21442,0.21442 -0.57178,0.21442 -0.40501,0 -0.64326,-0.23824 -0.23824,-0.26207 -0.23824,-0.59561 0,-0.11912 0.0238,-0.19059 0.0238,-0.0953 0.11913,-0.28589 0.61943,-1.19122 0.90532,-2.07272 0.30972,-0.90532 0.50031,-1.88212 -0.16677,-0.54796 -0.23824,-0.92915 -0.0715,-0.38119 -0.0715,-0.7862 0,-0.7862 0.33354,-1.26269 0.33354,-0.50031 0.92915,-0.50031 0.54796,0 0.85768,0.47649 0.33354,0.47648 0.33354,1.16739 0,0.38119 -0.0715,0.76237 -0.0715,0.38119 -0.1906,0.95298 0.54796,1.35798 1.09592,2.40625 0.54796,1.04827 0.9768,1.92977 0.42883,0.85768 0.6909,1.62006 0.28589,0.76237 0.28589,1.52475 0,1.00062 -0.40501,1.90595 -0.40501,0.90532 -1.33416,1.52475 0.11912,0.0238 0.23824,0.0238 0.11912,0 0.23824,0 1.35799,0 2.50156,-0.61943 1.14357,-0.61944 2.04889,-1.59623 0.92915,-1.00062 1.64388,-2.19184 0.71473,-1.21504 1.23886,-2.40626 0.23824,-0.54796 0.66708,-0.54796 0.40502,0 0.61943,0.2859 0.23825,0.28589 0.23825,0.61943 0,0.19059 -0.0715,0.35736 -0.26206,0.64326 -0.6909,1.47711 -0.40501,0.81003 -1.00062,1.69153 -0.57179,0.85767 -1.33416,1.69152 -0.76238,0.83385 -1.71535,1.50094 -0.92915,0.64325 -2.0489,1.02444 -1.11974,0.40501 -2.4539,0.40501 -1.59623,0 -2.97804,-0.57178 -1.35799,-0.54796 -2.21566,-1.83447 -0.14295,-0.21442 -0.14295,-0.45266 0,-0.35737 0.26207,-0.61944 0.28589,-0.28589 0.64326,-0.28589 0.38119,0 0.64325,0.26207 0.0238,0.0477 0.16677,0.16677 0.14295,0.0953 0.33354,0.23824 0.21442,0.11913 0.47649,0.21442 0.28589,0.0953 0.57178,0.0953 0.57179,0 0.95298,-0.23824 0.40501,-0.23825 0.64325,-0.57179 0.23825,-0.35736 0.33354,-0.73855 0.11913,-0.40501 0.11913,-0.69091 0,-0.5956 -0.1906,-1.19121 -0.19059,-0.59561 -0.50031,-1.19122 -0.28589,-0.59561 -0.64326,-1.21504 -0.33354,-0.64325 -0.61943,-1.33416 z"
         style="font-style:normal;font-variant:normal;font-weight:normal;font-stretch:normal;font-size:48.7922px;font-family:Sacramento;-inkscape-font-specification:'Sacramento, Normal';font-variant-ligatures:normal;font-variant-caps:normal;font-variant-numeric:normal;font-variant-east-asian:normal;text-align:center;text-anchor:middle;stroke-width:1.2198"
         id="path2419" />
      <path
         d="m 224.27342,112.84401 q 0,2.19184 -0.78621,3.74042 -0.7862,1.54858 -1.92977,2.35861 h 0.0953 q 1.40564,0 2.5492,-0.61943 1.16739,-0.64326 2.09654,-1.62006 0.92915,-1.00062 1.6677,-2.21566 0.73856,-1.21504 1.31034,-2.35861 0.11912,-0.26206 0.33354,-0.40501 0.23824,-0.14295 0.50031,-0.14295 0.40502,0 0.64326,0.2859 0.23824,0.28589 0.23824,0.61943 0,0.19059 -0.0715,0.35736 -0.61943,1.38181 -1.47711,2.78745 -0.85767,1.38181 -2.00124,2.50155 -1.14357,1.11974 -2.57303,1.81065 -1.42946,0.71473 -3.16863,0.71473 -1.26269,0 -2.45391,-0.40501 -1.19121,-0.38119 -2.09654,-1.21504 -0.33354,-0.26207 -0.57178,-0.54796 -0.23824,-0.30972 -0.38119,-0.57179 -0.0477,-0.0476 -0.0477,-0.0953 -0.14294,-0.21442 -0.14294,-0.45267 0,-0.30971 0.21442,-0.57178 0.0238,-0.0477 0.0477,-0.0477 0.0238,-0.0238 0.0476,-0.0476 0.23825,-0.21442 0.52414,-0.23824 h 0.0715 q 0.11912,0 0.16677,0.0238 0.0238,0 0.0238,0.0238 0.0238,0 0.0476,0 0.0715,0 0.16677,0.0476 0.0238,0.0238 0.0477,0.0238 0.21442,0.14295 0.35737,0.35737 0.16677,0.28589 0.38119,0.52413 0.19059,0.1906 0.45266,0.35737 0.26207,0.14294 0.59561,0.14294 0.59561,0 1.19121,-0.35736 0.59561,-0.35737 1.0721,-1.02445 0.47648,-0.66708 0.76238,-1.62005 0.30971,-0.95298 0.30971,-2.12037 0,-0.85767 -0.19059,-1.45328 -0.16677,-0.61943 -0.45267,-1.00062 -0.26206,-0.38119 -0.57178,-0.54796 -0.30971,-0.19059 -0.59561,-0.19059 -0.64325,0 -1.31033,0.66708 -0.64326,0.66708 -1.28652,1.69152 -0.64325,1.02445 -1.28651,2.26331 -0.61943,1.23887 -1.26269,2.40626 -0.0477,3.85954 -0.14294,7.36171 -0.0715,3.50218 -0.2859,6.50404 -0.19059,3.00186 -0.54796,5.43194 -0.35736,2.43008 -0.97679,4.14543 -0.61943,1.73918 -1.52476,2.66833 -0.90532,0.92915 -2.21566,0.92915 -0.40501,0 -0.92915,-0.16677 -0.52413,-0.16677 -0.9768,-0.69091 -0.45266,-0.50031 -0.76237,-1.45328 -0.30972,-0.95298 -0.30972,-2.5492 0,-2.02507 0.50031,-4.69339 0.50031,-2.66833 1.42946,-5.67019 0.90532,-2.97804 2.16801,-6.12285 1.26269,-3.14481 2.78745,-6.12285 0,-0.83385 0,-1.64388 0.0238,-0.81002 0.0238,-1.5724 -0.30971,0.35736 -0.73855,0.35736 -0.40502,0 -0.64326,-0.28589 -0.23824,-0.28589 -0.23824,-0.61943 0,-0.16677 0.0715,-0.35737 0.57179,-1.31033 0.8815,-2.47772 0.30972,-1.19122 0.45266,-2.07272 0.16677,-0.90532 0.1906,-1.42946 0.0238,-0.52413 0.0238,-0.54796 0,-0.35736 0.26207,-0.61943 0.26207,-0.26207 0.64326,-0.26207 0.35736,0 0.61943,0.26207 0.26207,0.23824 0.26207,0.61943 v 7.31407 q 0.54795,-0.92915 1.09591,-1.83448 0.54796,-0.90532 1.14357,-1.62005 0.61943,-0.71473 1.31034,-1.14357 0.71473,-0.45266 1.5724,-0.45266 0.81003,0 1.47711,0.38119 0.66708,0.38119 1.14357,1.04827 0.47648,0.66708 0.71473,1.59623 0.26207,0.90532 0.26207,1.95359 z m -10.578,7.64761 q -1.16739,2.62067 -2.12037,5.26517 -0.92914,2.6445 -1.5724,5.09841 -0.66708,2.4539 -1.02445,4.59809 -0.35736,2.14419 -0.35736,3.76424 0,0.40501 0.0477,0.8815 0.0477,0.47649 0.19059,0.8815 0.14295,0.40501 0.40502,0.66708 0.26206,0.28589 0.6909,0.28589 0.7862,0 1.35799,-1.00062 0.57178,-0.9768 0.95297,-2.66832 0.40501,-1.6677 0.66708,-3.85954 0.26207,-2.16801 0.40501,-4.55045 0.16677,-2.38243 0.23825,-4.81251 0.0715,-2.40625 0.11912,-4.55044 z"
         style="font-style:normal;font-variant:normal;font-weight:normal;font-stretch:normal;font-size:48.7922px;font-family:Sacramento;-inkscape-font-specification:'Sacramento, Normal';font-variant-ligatures:normal;font-variant-caps:normal;font-variant-numeric:normal;font-variant-east-asian:normal;text-align:center;text-anchor:middle;stroke-width:1.2198"
         id="path2421" />
      <path
         d="m 231.77807,109.6992 q -0.0953,0.64326 -0.23824,1.21504 -0.14295,0.54796 -0.28589,0.9768 -0.11913,0.40501 -0.21442,0.66708 -0.0953,0.26207 -0.11913,0.28589 -0.23824,0.54796 -0.83385,0.54796 -0.33354,0 -0.61943,-0.23824 -0.28589,-0.26207 -0.28589,-0.64326 0,-0.14294 0.0477,-0.21442 0.0477,-0.0715 0.14294,-0.28589 0.0953,-0.21442 0.23825,-0.71473 0.14294,-0.50031 0.35736,-1.54858 -0.40501,0 -0.83385,-0.0238 -0.42884,-0.0238 -0.7862,-0.16677 -0.38119,-0.14295 -0.61943,-0.45266 -0.23825,-0.30972 -0.23825,-0.85768 0,-0.40501 0.23825,-1.09592 0.21442,-0.6909 0.5956,-1.35798 0.38119,-0.66708 0.85768,-1.14357 0.47649,-0.50031 0.95297,-0.50031 0.54796,0 0.8815,0.40501 0.35737,0.40501 0.54796,1.00062 0.1906,0.57179 0.26207,1.21504 0.0953,0.64326 0.0953,1.11975 0.40501,0 0.7862,0 0.40501,-0.0238 0.76238,-0.0238 1.35798,0 2.07271,0.59561 0.71473,0.59561 0.71473,1.95359 0,0.54796 -0.0715,1.14357 -0.0715,0.59561 -0.16677,1.23886 -0.0953,0.61944 -0.16677,1.23887 -0.0715,0.61943 -0.0715,1.21504 0,0.85767 0.23825,1.42946 0.23824,0.54796 0.59561,0.8815 0.35736,0.33354 0.76237,0.47648 0.40502,0.11913 0.73856,0.11913 1.02444,0 1.92977,-0.66709 0.90532,-0.66708 1.6677,-1.59622 0.76238,-0.95298 1.35799,-2.00125 0.61943,-1.04827 1.02444,-1.83447 0.11912,-0.21442 0.33354,-0.33354 0.21442,-0.11912 0.45266,-0.11912 0.42884,0 0.66708,0.28589 0.23825,0.26207 0.23825,0.59561 0,0.23824 -0.0953,0.42884 -0.54796,0.97679 -1.28651,2.21566 -0.71473,1.21504 -1.64388,2.28713 -0.92915,1.0721 -2.09654,1.81065 -1.14357,0.73855 -2.52538,0.73855 -0.85767,0 -1.62005,-0.33354 -0.76238,-0.30971 -1.33416,-0.90532 -0.54796,-0.61943 -0.8815,-1.50093 -0.33354,-0.90533 -0.33354,-2.02507 0,-1.19122 0.23824,-2.35861 0.23824,-1.19121 0.23824,-2.26331 0,-0.45266 -0.21442,-0.66708 -0.19059,-0.23824 -0.8815,-0.23824 -0.33354,0 -0.73855,0 -0.38119,0 -0.83385,0.0238 z m -1.59623,-1.763 q 0,-0.16677 -0.0238,-0.42883 0,-0.2859 -0.0477,-0.54796 -0.0238,-0.26207 -0.0953,-0.45266 -0.0477,-0.1906 -0.11912,-0.1906 -0.0715,0 -0.1906,0.1906 -0.0953,0.16677 -0.21441,0.42883 -0.11913,0.23825 -0.21442,0.52414 -0.0953,0.28589 -0.14295,0.47648 z m 0.11912,-8.552925 q -0.14294,-0.214419 -0.14294,-0.452662 0,-0.309716 0.21442,-0.547959 0.23824,-0.238243 0.57178,-0.238243 0.40501,0 0.64326,0.309716 l 1.95359,2.763623 2.00124,-2.763623 q 0.23824,-0.309716 0.61943,-0.309716 0.33354,0 0.57179,0.238243 0.23824,0.238243 0.23824,0.547959 0,0.285892 -0.16677,0.476486 l -2.66832,3.621301 q -0.23825,0.30971 -0.64326,0.30971 -0.40501,0 -0.61943,-0.33354 z"
         style="font-style:normal;font-variant:normal;font-weight:normal;font-stretch:normal;font-size:48.7922px;font-family:Sacramento;-inkscape-font-specification:'Sacramento, Normal';font-variant-ligatures:normal;font-variant-caps:normal;font-variant-numeric:normal;font-variant-east-asian:normal;text-align:center;text-anchor:middle;stroke-width:1.2198"
         id="path2423" />
      <path
         d="m 244.09525,114.74996 q 0,-3.4307 0.42884,-6.83758 0.0476,-0.33354 0.28589,-0.57178 0.26206,-0.26207 0.66708,-0.26207 0.35736,0 0.59561,0.28589 0.23824,0.26207 0.23824,0.61943 0,0.14295 -0.0715,0.85768 -0.0477,0.71473 -0.14295,1.71535 -0.0715,0.9768 -0.14295,2.09654 -0.0476,1.09592 -0.0476,2.02507 0,1.26268 0.23824,2.04889 0.26207,0.76237 0.64326,1.19121 0.40501,0.42884 0.83385,0.57179 0.45266,0.14294 0.85767,0.14294 0.66708,0 1.38181,-0.47648 0.71473,-0.47649 1.45329,-1.33417 0.76237,-0.85767 1.52475,-2.04889 0.76238,-1.21504 1.50093,-2.69214 0.11913,-0.23825 0.33354,-0.35737 0.21442,-0.14295 0.47649,-0.14295 0.38119,0 0.61943,0.2859 0.26207,0.28589 0.26207,0.61943 0,0.23824 -0.0953,0.40501 -0.28589,0.54796 -0.71473,1.33416 -0.42883,0.78621 -0.97679,1.62006 -0.54796,0.83385 -1.21504,1.6677 -0.64326,0.81003 -1.38181,1.47711 -0.73856,0.64325 -1.54858,1.04827 -0.81003,0.40501 -1.64388,0.40501 -1.0721,0 -1.88212,-0.45266 -0.81003,-0.45266 -1.38181,-1.21504 -0.54796,-0.76238 -0.83385,-1.78683 -0.26207,-1.04827 -0.26207,-2.23948 z m 0.33354,-10.53035 3.81189,-3.62129 q 0.23824,-0.21442 0.54796,-0.21442 0.30971,0 0.54796,0.23824 0.23824,0.23824 0.23824,0.57178 0,0.33354 -0.23824,0.54796 l -3.81189,3.6213 q -0.26207,0.21442 -0.54796,0.21442 -0.33354,0 -0.57179,-0.23825 -0.21441,-0.23824 -0.21441,-0.54796 0,-0.33354 0.23824,-0.57178 z"
         style="font-style:normal;font-variant:normal;font-weight:normal;font-stretch:normal;font-size:48.7922px;font-family:Sacramento;-inkscape-font-specification:'Sacramento, Normal';font-variant-ligatures:normal;font-variant-caps:normal;font-variant-numeric:normal;font-variant-east-asian:normal;text-align:center;text-anchor:middle;stroke-width:1.2198"
         id="path2425" />
      <path
         d="m 274.39978,112.89166 q -0.0715,0.14295 -0.30971,0.59561 -0.23825,0.42884 -0.61944,1.02445 -0.38118,0.57178 -0.90532,1.23886 -0.52413,0.64326 -1.14357,1.19122 -0.61943,0.54795 -1.33416,0.90532 -0.71473,0.35736 -1.47711,0.35736 -1.23886,0 -2.09654,-0.42883 -0.85767,-0.45267 -1.40563,-1.00062 -0.38119,0.83385 -0.92915,1.52475 -0.54796,0.69091 -1.21504,1.19122 -0.66708,0.52413 -1.42946,0.81002 -0.73855,0.2859 -1.52475,0.2859 -1.45329,0 -2.47773,-0.85768 -1.02445,-0.85767 -1.71535,-2.28713 -0.66708,-1.45329 -1.04827,-3.35923 -0.38119,-1.90595 -0.59561,-4.00249 -0.1906,-2.09654 -0.23824,-4.24073 -0.0477,-2.14418 -0.0477,-4.07395 0,-3.692772 0.21442,-6.38492 0.21441,-2.715972 0.57178,-4.598093 0.38119,-1.905945 0.85767,-3.073337 0.50032,-1.191215 1.04827,-1.834472 0.54796,-0.667081 1.11975,-0.905324 0.57178,-0.238243 1.11974,-0.238243 0.8815,0 1.54858,0.524135 0.69091,0.524135 1.14357,1.477107 0.47648,0.929149 0.71473,2.26331 0.23824,1.334162 0.23824,2.930391 0,2.549202 -0.54796,5.265174 -0.54796,2.715972 -1.42946,5.431942 -0.85767,2.69215 -1.92977,5.31282 -1.07209,2.59685 -2.12036,4.93164 0.14294,1.16739 0.42884,2.23948 0.28589,1.04827 0.73855,1.88212 0.45266,0.81003 1.07209,1.31034 0.61944,0.47649 1.42946,0.47649 0.81003,0 1.52476,-0.45266 0.71473,-0.47649 1.23886,-1.21504 0.52414,-0.76238 0.81003,-1.71535 0.30972,-0.95298 0.30972,-1.9536 0,-0.66708 -0.14295,-1.33416 -0.11912,-0.69091 -0.40501,-1.21504 -0.26207,-0.54796 -0.66708,-0.8815 -0.40502,-0.33354 -0.9768,-0.33354 -0.42884,0 -0.66708,0.19059 -0.23824,0.16677 -0.35737,0.40502 -0.11912,0.21442 -0.14294,0.42883 -0.0238,0.21442 -0.0238,0.2859 0,0.33354 0.14295,0.66708 0.14295,0.33354 0.54796,0.59561 0.40501,0.28589 0.40501,0.7862 0,0.40501 -0.28589,0.64325 -0.26207,0.23825 -0.59561,0.23825 -0.47648,0 -0.85767,-0.28589 -0.35737,-0.2859 -0.61943,-0.71473 -0.26207,-0.45267 -0.40502,-0.95298 -0.14294,-0.50031 -0.14294,-0.92914 0,-0.69091 0.23824,-1.26269 0.23824,-0.59561 0.64326,-1.00062 0.42883,-0.42884 0.95297,-0.64326 0.54796,-0.23824 1.14357,-0.23824 1.02444,0 1.76299,0.47648 0.76238,0.47649 1.26269,1.26269 0.50031,0.7862 0.73856,1.78682 0.23824,1.00063 0.23824,2.02507 0,0.59561 -0.0715,1.16739 0.0953,0.1906 0.30971,0.50031 0.21442,0.30972 0.57179,0.59561 0.35736,0.28589 0.85767,0.50031 0.50031,0.21442 1.16739,0.21442 0.57179,0 1.1674,-0.42884 0.61943,-0.45266 1.16739,-1.09592 0.57178,-0.66708 1.04827,-1.40563 0.47648,-0.76238 0.7862,-1.40563 0.11912,-0.23825 0.33354,-0.35737 0.21442,-0.14295 0.47649,-0.14295 0.40501,0 0.64325,0.2859 0.26207,0.28589 0.26207,0.64325 0,0.14295 -0.0953,0.38119 z m -18.41619,-3.07333 q 0.81002,-2.00125 1.64387,-4.19308 0.83386,-2.21567 1.50094,-4.5028 0.66708,-2.287134 1.09591,-4.621917 0.42884,-2.334783 0.42884,-4.598093 0,-0.857675 -0.0953,-1.786824 -0.0715,-0.952972 -0.2859,-1.739175 -0.21442,-0.786202 -0.5956,-1.310337 -0.35737,-0.524135 -0.92915,-0.524135 -0.1906,0 -0.50031,0.262067 -0.2859,0.238244 -0.61944,0.8815 -0.33354,0.619432 -0.66708,1.739175 -0.33354,1.119743 -0.61943,2.858918 -0.26207,1.715351 -0.45266,4.145431 -0.16677,2.43008 -0.16677,5.71784 0,1.09591 0.0238,2.23948 0.0238,1.11974 0.0477,2.14419 0.0477,1.02445 0.0953,1.88212 0.0476,0.85768 0.0953,1.40564 z"
         style="font-style:normal;font-variant:normal;font-weight:normal;font-stretch:normal;font-size:48.7922px;font-family:Sacramento;-inkscape-font-specification:'Sacramento, Normal';font-variant-ligatures:normal;font-variant-caps:normal;font-variant-numeric:normal;font-variant-east-asian:normal;text-align:center;text-anchor:middle;stroke-width:1.2198"
         id="path2427" />
      <path
         d="m 275.63864,116.87032 q 0.50031,0.69091 1.28651,1.11975 0.7862,0.40501 1.92977,0.40501 1.16739,0 2.12037,-0.54796 0.95297,-0.57178 1.73917,-1.47711 0.7862,-0.90532 1.40564,-2.02506 0.61943,-1.11975 1.11974,-2.23949 0.11912,-0.26207 0.33354,-0.38119 0.21442,-0.14295 0.47648,-0.14295 0.40502,0 0.64326,0.2859 0.26207,0.28589 0.26207,0.61943 0,0.11912 -0.0238,0.21442 -0.0238,0.0715 -0.0715,0.16677 -1.64388,3.62129 -3.59747,5.45577 -1.92977,1.83447 -4.38367,1.88212 -1.57241,0 -2.71598,-0.61944 -1.14356,-0.5956 -1.88212,-1.54858 -0.73855,-0.97679 -1.09592,-2.19183 -0.35736,-1.21504 -0.35736,-2.43008 0,-1.21504 0.28589,-2.23949 0.30972,-1.02444 0.85768,-1.78682 0.57178,-0.76238 1.33416,-1.19122 0.7862,-0.42884 1.71535,-0.42884 0.54796,0 1.07209,0.23825 0.54796,0.21442 0.9768,0.64325 0.42884,0.40502 0.69091,1.00063 0.26206,0.5956 0.26206,1.35798 0,0.9768 -0.33354,1.83447 -0.33354,0.85768 -0.92915,1.59623 -0.57178,0.73856 -1.38181,1.35799 -0.81002,0.61943 -1.73917,1.07209 z m -0.71473,-1.54858 q 0.73855,-0.30971 1.33416,-0.7862 0.61943,-0.47649 1.04827,-1.04827 0.42884,-0.57178 0.66708,-1.19122 0.23825,-0.64325 0.23825,-1.28651 0,-0.71473 -0.35737,-1.07209 -0.35736,-0.38119 -0.83385,-0.38119 -0.64326,0 -1.09592,0.35736 -0.45266,0.35737 -0.73855,0.92915 -0.28589,0.57178 -0.42884,1.28651 -0.11912,0.69091 -0.11912,1.38181 0,0.42884 0.0715,0.90533 0.0953,0.47648 0.21442,0.90532 z m -0.83385,-13.84193 q -0.14295,-0.21441 -0.14295,-0.45266 0,-0.30971 0.21442,-0.54796 0.23824,-0.23824 0.57179,-0.23824 0.40501,0 0.64325,0.30972 l 1.9536,2.76362 2.00124,-2.76362 q 0.23824,-0.30972 0.61943,-0.30972 0.33354,0 0.57178,0.23824 0.23825,0.23825 0.23825,0.54796 0,0.28589 -0.16677,0.47649 l -2.66833,3.6213 q -0.23824,0.30971 -0.64325,0.30971 -0.40502,0 -0.61944,-0.33354 z"
         style="font-style:normal;font-variant:normal;font-weight:normal;font-stretch:normal;font-size:48.7922px;font-family:Sacramento;-inkscape-font-specification:'Sacramento, Normal';font-variant-ligatures:normal;font-variant-caps:normal;font-variant-numeric:normal;font-variant-east-asian:normal;text-align:center;text-anchor:middle;stroke-width:1.2198"
         id="path2429" />
      <path
         d="m 287.12196,117.46593 q 0.38118,-0.81003 0.8815,-1.73917 0.50031,-0.95298 1.07209,-1.92977 0.57178,-1.00063 1.21504,-1.97742 0.64326,-0.9768 1.33416,-1.83447 0.69091,-0.83386 1.38181,-1.19122 0.71473,-0.38119 1.33416,-0.38119 0.61944,0 1.0721,0.26207 0.47648,0.23824 0.76238,0.66708 0.30971,0.42884 0.45266,1.00062 0.16677,0.57178 0.16677,1.23886 0,0.54796 -0.11912,1.47711 -0.0953,0.90533 -0.0953,1.90595 0,0.57178 0.0476,1.14356 0.0715,0.54796 0.21442,1.00063 0.16677,0.42883 0.47648,0.71473 0.30972,0.26206 0.81003,0.26206 0.57178,0 1.14357,-0.30971 0.57178,-0.33354 1.11974,-0.85768 0.54796,-0.54796 1.04827,-1.19121 0.50031,-0.66709 0.90532,-1.31034 0.40502,-0.66708 0.71473,-1.26269 0.30972,-0.61943 0.50031,-1.02445 0.23825,-0.54796 0.83385,-0.54796 0.40502,0 0.64326,0.2859 0.23824,0.28589 0.23824,0.61943 0,0.19059 -0.0715,0.35736 -0.0953,0.1906 -0.38119,0.78621 -0.26207,0.5956 -0.73855,1.38181 -0.45266,0.7862 -1.0721,1.64387 -0.61943,0.85768 -1.38181,1.59623 -0.73855,0.71473 -1.62005,1.19122 -0.85768,0.45266 -1.81065,0.45266 -1.09592,0 -1.763,-0.45266 -0.66708,-0.47649 -1.04827,-1.19122 -0.35736,-0.71473 -0.50031,-1.59623 -0.11912,-0.8815 -0.11912,-1.71535 0,-0.42883 0.0238,-0.90532 0.0476,-0.50031 0.0953,-0.9768 0.0476,-0.47648 0.0715,-0.8815 0.0476,-0.42884 0.0476,-0.71473 0,-0.73855 -0.21441,-1.00062 -0.1906,-0.26207 -0.45267,-0.26207 -0.38119,0 -0.8815,0.45267 -0.47648,0.42883 -1.02444,1.14356 -0.52414,0.71473 -1.0721,1.62006 -0.52413,0.8815 -1.02444,1.763 -0.50031,0.8815 -0.90533,1.69152 -0.40501,0.78621 -0.66708,1.31034 -0.50031,1.00062 -1.02444,1.33416 -0.50031,0.35737 -0.90533,0.35737 -0.73855,0 -1.14356,-0.57179 -0.38119,-0.59561 -0.38119,-1.42946 v -1.50093 q 0,-4.50279 0,-8.57675 0.0238,-4.09778 0.11912,-7.59996 0.11912,-3.525997 0.35736,-6.36109 0.26207,-2.858918 0.76238,-4.860161 0.50031,-2.025067 1.26269,-3.120985 0.7862,-1.095919 1.95359,-1.095919 1.00063,0 1.69153,0.54796 0.69091,0.547959 1.11974,1.500931 0.42884,0.929149 0.61944,2.191837 0.19059,1.238865 0.19059,2.620675 0,2.811269 -0.52413,5.527241 -0.50031,2.692148 -1.35799,5.265171 -0.85768,2.57303 -2.00124,5.02693 -1.14357,2.43008 -2.40626,4.74104 0,0.42884 0,1.02445 0,0.59561 0,1.19121 0,0.59561 0,1.11975 0,0.52413 0,0.83385 z m 0,-8.79117 q 1.00062,-2.19184 1.81064,-4.26455 0.83385,-2.09654 1.40564,-4.16926 0.59561,-2.072715 0.92915,-4.193079 0.33354,-2.144189 0.33354,-4.455147 0,-0.381189 -0.0477,-1.21504 -0.0238,-0.833851 -0.21442,-1.691527 -0.16677,-0.857675 -0.54796,-1.500932 -0.35736,-0.643256 -1.02445,-0.643256 -0.52413,0 -0.90532,0.714729 -0.38119,0.690906 -0.66708,1.905946 -0.28589,1.191215 -0.47649,2.787445 -0.19059,1.596229 -0.30971,3.383052 -0.11912,1.786824 -0.1906,3.668945 -0.0476,1.882124 -0.0715,3.668944 -0.0238,1.763 -0.0238,3.31158 0,1.54858 0,2.69215 z"
         style="font-style:normal;font-variant:normal;font-weight:normal;font-stretch:normal;font-size:48.7922px;font-family:Sacramento;-inkscape-font-specification:'Sacramento, Normal';font-variant-ligatures:normal;font-variant-caps:normal;font-variant-numeric:normal;font-variant-east-asian:normal;text-align:center;text-anchor:middle;stroke-width:1.2198"
         id="path2431" />
      <path
         d="m 306.41964,116.87032 q 0.50032,0.69091 1.28652,1.11975 0.7862,0.40501 1.92977,0.40501 1.16739,0 2.12036,-0.54796 0.95297,-0.57178 1.73918,-1.47711 0.7862,-0.90532 1.40563,-2.02506 0.61943,-1.11975 1.11974,-2.23949 0.11913,-0.26207 0.33354,-0.38119 0.21442,-0.14295 0.47649,-0.14295 0.40501,0 0.64326,0.2859 0.26206,0.28589 0.26206,0.61943 0,0.11912 -0.0238,0.21442 -0.0238,0.0715 -0.0715,0.16677 -1.64388,3.62129 -3.59747,5.45577 -1.92977,1.83447 -4.38368,1.88212 -1.5724,0 -2.71597,-0.61944 -1.14357,-0.5956 -1.88212,-1.54858 -0.73855,-0.97679 -1.09592,-2.19183 -0.35736,-1.21504 -0.35736,-2.43008 0,-1.21504 0.28589,-2.23949 0.30971,-1.02444 0.85767,-1.78682 0.57179,-0.76238 1.33416,-1.19122 0.78621,-0.42884 1.71536,-0.42884 0.54795,0 1.07209,0.23825 0.54796,0.21442 0.9768,0.64325 0.42883,0.40502 0.6909,1.00063 0.26207,0.5956 0.26207,1.35798 0,0.9768 -0.33354,1.83447 -0.33354,0.85768 -0.92915,1.59623 -0.57178,0.73856 -1.38181,1.35799 -0.81003,0.61943 -1.73918,1.07209 z m -0.71472,-1.54858 q 0.73855,-0.30971 1.33416,-0.7862 0.61943,-0.47649 1.04827,-1.04827 0.42883,-0.57178 0.66708,-1.19122 0.23824,-0.64325 0.23824,-1.28651 0,-0.71473 -0.35736,-1.07209 -0.35737,-0.38119 -0.83385,-0.38119 -0.64326,0 -1.09592,0.35736 -0.45267,0.35737 -0.73856,0.92915 -0.28589,0.57178 -0.42883,1.28651 -0.11913,0.69091 -0.11913,1.38181 0,0.42884 0.0715,0.90533 0.0953,0.47648 0.21442,0.90532 z"
         style="font-style:normal;font-variant:normal;font-weight:normal;font-stretch:normal;font-size:48.7922px;font-family:Sacramento;-inkscape-font-specification:'Sacramento, Normal';font-variant-ligatures:normal;font-variant-caps:normal;font-variant-numeric:normal;font-variant-east-asian:normal;text-align:center;text-anchor:middle;stroke-width:1.2198"
         id="path2433" />
      <path
         d="m 321.52429,117.37063 q 0.35736,-0.71473 0.90532,-1.763 0.57179,-1.07209 1.16739,-2.14418 0.61944,-1.0721 1.19122,-2.02507 0.59561,-0.95297 1.00062,-1.45328 0.69091,-0.83386 1.42946,-1.19122 0.73855,-0.35737 1.35799,-0.35737 0.61943,0 1.04827,0.26207 0.45266,0.26207 0.73855,0.71473 0.28589,0.42884 0.42884,1.02445 0.14294,0.57178 0.14294,1.23886 0,0.38119 -0.0476,1.00062 -0.0238,0.61944 -0.0715,1.33416 -0.0238,0.71473 -0.0715,1.47711 -0.0238,0.76238 -0.0477,1.42946 0.35736,-0.71473 0.81003,-1.5724 0.45266,-0.8815 0.90532,-1.73918 0.47649,-0.85767 0.90532,-1.59623 0.42884,-0.76238 0.78621,-1.23886 1.02444,-1.40564 1.90594,-1.88212 0.90533,-0.47649 1.59623,-0.47649 0.81003,0 1.33416,0.30972 0.52414,0.28589 0.81003,0.76237 0.30972,0.45267 0.42884,1.02445 0.11912,0.57178 0.11912,1.09592 0,0.81003 -0.11912,1.69153 -0.11912,0.88149 -0.11912,2.09654 0,0.50031 0.0476,1.00062 0.0476,0.50031 0.1906,0.8815 0.16677,0.38119 0.50031,0.61943 0.33354,0.23824 0.90532,0.23824 0.61944,0 1.21504,-0.30971 0.59561,-0.33355 1.14357,-0.85768 0.54796,-0.52414 1.02445,-1.19122 0.50031,-0.66708 0.90532,-1.33416 0.40501,-0.66708 0.71473,-1.26269 0.30972,-0.61943 0.50031,-1.04827 0.11912,-0.26206 0.33354,-0.40501 0.21442,-0.14295 0.47649,-0.14295 0.40501,0 0.64325,0.30972 0.26207,0.28589 0.26207,0.61943 0,0.16677 -0.0715,0.33354 -0.0953,0.1906 -0.38119,0.81003 -0.28589,0.59561 -0.76238,1.38181 -0.47649,0.76238 -1.11974,1.62005 -0.61943,0.85768 -1.38181,1.59623 -0.76238,0.71473 -1.64388,1.19122 -0.8815,0.45266 -1.8583,0.45266 -1.04827,0 -1.71535,-0.38119 -0.64325,-0.35736 -1.04827,-0.9768 -0.38119,-0.61943 -0.52413,-1.42945 -0.14295,-0.81003 -0.14295,-1.69153 0,-1.16739 0.11912,-2.14419 0.11912,-1.00062 0.11912,-1.54858 0,-0.59561 -0.11912,-0.90532 -0.0953,-0.30972 -0.26206,-0.42884 -0.14295,-0.14295 -0.2859,-0.14295 -0.14294,-0.0238 -0.21441,-0.0238 -0.57179,0 -1.21504,0.64326 -0.61944,0.61943 -1.28652,1.6677 -0.66708,1.04827 -1.38181,2.38243 -0.6909,1.33416 -1.40563,2.71597 -0.40502,0.76238 -0.69091,1.26269 -0.26207,0.50031 -0.52413,0.7862 -0.23825,0.28589 -0.47649,0.40502 -0.23824,0.11912 -0.52413,0.11912 -0.61944,0 -0.95298,-0.42884 -0.30971,-0.42884 -0.30971,-1.11974 0,-0.35737 0.0238,-0.95298 0.0238,-0.5956 0.0476,-1.31033 0.0238,-0.71473 0.0715,-1.47711 0.0477,-0.76238 0.0715,-1.45328 0.0238,-0.71473 0.0476,-1.26269 0.0238,-0.54796 0.0238,-0.83385 0,-0.61944 -0.21442,-0.8815 -0.21442,-0.2859 -0.50031,-0.2859 -0.26207,0 -0.59561,0.1906 -0.30971,0.19059 -0.73855,0.73855 -0.33354,0.42884 -0.85768,1.26269 -0.50031,0.81003 -1.07209,1.81065 -0.57179,1.00062 -1.14357,2.04889 -0.54796,1.04827 -0.95297,1.88212 -0.50031,1.00062 -1.00062,1.35799 -0.50031,0.38119 -0.9768,0.38119 -0.6909,0 -1.02445,-0.40502 -0.33354,-0.42883 -0.33354,-1.11974 0,-0.0715 0.0238,-0.85768 0.0477,-0.7862 0.0953,-1.90594 0.0476,-1.14357 0.0953,-2.43008 0.0715,-1.28651 0.11912,-2.40626 0.0238,-0.5956 -0.0476,-1.09591 -0.0715,-0.50032 -0.1906,-0.59561 -0.19059,0.0477 -0.76238,0.8815 -0.54796,0.83385 -1.40563,2.90656 -0.11912,0.26207 -0.35737,0.40502 -0.23824,0.14294 -0.50031,0.14294 -0.40501,0 -0.64325,-0.26206 -0.23825,-0.2859 -0.23825,-0.64326 0,-0.16677 0.0715,-0.35737 1.07209,-2.5492 2.04889,-3.74041 0.97679,-1.21504 1.90594,-1.21504 0.54796,0 0.90533,0.26206 0.38119,0.23825 0.59561,0.64326 0.21441,0.38119 0.30971,0.8815 0.0953,0.50031 0.0953,0.9768 0,2.12036 -0.11912,3.88336 -0.0953,1.763 -0.21442,3.54982 z"
         style="font-style:normal;font-variant:normal;font-weight:normal;font-stretch:normal;font-size:48.7922px;font-family:Sacramento;-inkscape-font-specification:'Sacramento, Normal';font-variant-ligatures:normal;font-variant-caps:normal;font-variant-numeric:normal;font-variant-east-asian:normal;text-align:center;text-anchor:middle;stroke-width:1.2198"
         id="path2435" />
    </g>
    <path
       d="m 96.511077,3.6625216 c -2.92872,0.3014117 -5.79869,1.7225207 -7.07297,3.9485005 -1.81045,5.1549139 -0.26446,10.5545039 1.70404,15.5230449 3.52165,9.138685 7.63199,18.653157 16.120293,25.558512 5.11013,4.086842 12.97598,5.655459 19.69176,3.536392 4.99289,-1.510855 10.08662,-3.095538 15.4862,-3.157429 3.64407,0.135931 7.53921,1.498988 9.26175,4.284959 1.36291,4.40969 0.27533,9.188598 -2.70801,12.996489 -2.45157,3.501592 -6.23763,6.231896 -8.63527,9.751666 6.58549,-1.916323 11.04322,-6.841825 14.59459,-11.540438 2.57544,-3.43526 3.99713,-7.632629 3.02142,-11.648309 -0.6747,-3.587365 -4.66907,-6.170635 -8.81945,-6.922383 -7.22275,-1.440036 -14.71482,0.09659 -21.34955,2.50423 -3.9491,1.209375 -8.0679,3.277892 -12.42029,2.177212 -5.92481,-1.870761 -10.0232,-6.272262 -12.90469,-10.744981 -4.842293,-8.342115 -8.216423,-17.487327 -7.626493,-26.786977 0.2954,-2.250697 1.72609,-4.6133871 4.48812,-5.4023197 3.343413,-1.0996624 6.926273,0.2976797 9.539663,2.0291677 4.3304,3.08709 7.32212,7.199116 9.92424,11.3369 0.28117,-1.760417 -0.92327,-3.333739 -1.68858,-4.902701 C 113.17707,10.491272 107.05726,5.1619558 98.982597,3.6738313 l -2.47137,-0.011069 z m 29.340213,9.0738454 c -0.54627,0.0026 -1.09161,0.02888 -1.63284,0.0789 -1.579,0.196233 -3.40016,0.454662 -4.60113,1.227852 5.26038,-1.086278 11.1077,0.143087 15.25936,2.984196 2.54475,1.75634 3.99353,4.96207 2.35091,7.499744 -1.18964,2.220387 -4.21006,3.075228 -6.66186,4.085596 -7.55746,2.065072 -16.54572,3.306858 -21.49105,8.960794 5.73415,-3.511986 12.37653,-6.067909 19.39967,-7.330476 3.68113,-0.771655 7.55428,-1.947864 9.88855,-4.542233 1.50151,-2.071894 1.81389,-4.730329 0.78025,-6.998955 -2.63928,-3.841098 -8.01199,-5.992113 -13.29186,-5.965304 z M 76.947345,40.414475 c -0.205866,2.57e-4 -0.416149,0.01683 -0.630405,0.05009 -2.70658,0.776005 -3.591925,3.270431 -3.900117,5.370386 l -0.0025,1.203023 c 0.548188,3.396636 2.991027,6.360453 6.071587,8.598768 9.515087,7.101313 21.382267,11.465888 32.83326,16.013013 0.38168,0.246887 -0.28817,0.358846 -0.50865,0.437983 -2.83638,0.761086 -5.24704,2.291769 -7.68491,3.596414 -2.63701,-0.963821 -5.566683,-2.246006 -6.750543,-4.538013 -0.77975,-1.63003 1.11052,-2.712163 2.42261,-3.590108 -2.61592,0.684333 -3.98582,3.327273 -2.37364,5.237306 3.693573,4.061345 9.951743,5.605896 15.738653,6.528824 16.9353,2.487005 34.21437,0.684504 50.90472,-2.060779 -0.0208,-0.513166 -1.12644,-0.0015 -1.44858,-0.130944 -10.20255,1.452818 -20.56413,2.259097 -30.93358,2.032025 -1.53602,-0.09897 -3.40599,0.387775 -4.61012,-0.670086 C 116.1349,70.357043 101.86688,67.69661 91.056337,60.567968 85.378908,57.100494 79.685709,52.087764 80.203069,45.861426 c 0.360884,-0.884592 0.1653,-2.137775 1.268008,-2.684174 -0.947603,-1.335259 -2.533581,-2.769524 -4.523703,-2.762775 z m 5.293043,4.484961 c -1.099628,5.005004 2.719665,9.600445 6.976699,12.871269 11.827573,8.994147 27.431463,13.169877 40.921123,20.053393 -0.98098,-1.032936 -3.51654,-2.335954 -3.46284,-4.155993 0.12527,-1.209766 1.5987,-1.886065 2.80769,-2.337503 4.58676,-1.90855 9.90753,-1.377604 14.82165,-2.170026 -8.39664,-0.396439 -17.13962,0.767558 -25.66334,1.095275 -1.71863,0.01385 -3.15667,-0.833392 -4.68301,-1.342552 C 107.73967,66.030631 101.1013,63.510965 96.007697,59.284278 90.449517,55.271974 85.115456,50.279862 82.240388,44.899554 Z M 144.634,60.994726 c -0.5655,0.008 -1.24426,0.131217 -1.69464,0.109772 -11.88378,0.41076 -24.14993,0.225415 -35.52521,3.518369 0.82381,0.215376 2.18799,-0.475834 3.19176,-0.492863 11.41534,-2.292939 23.33555,-1.384379 34.84997,-2.97125 -0.18408,-0.133125 -0.48257,-0.169093 -0.82187,-0.164013 z m -49.094863,11.4048 c -0.37295,2.359179 0.28408,4.733633 0.7311,7.058221 -3.49315,-2.360967 -9.698517,-2.740285 -12.428548,0.672704 -2.52045,2.990601 -0.453669,7.07575 2.967657,8.962786 5.224771,3.057621 11.835091,3.715147 17.488924,6.064269 3.712,1.71612 6.97189,4.003086 10.62681,5.791914 3.00333,1.55268 6.40635,2.48046 9.44191,3.97111 -0.08,1.82709 1.20761,3.4033 2.63002,4.7097 3.35437,3.0875 7.56787,5.54977 12.24017,7.11112 9.43956,3.70799 19.34869,6.86422 29.72888,8.15936 l 1.84273,0.009 c -12.76485,-4.81961 -27.31947,-7.83891 -36.97922,-16.78028 -3.26907,-2.74507 -3.02664,-7.96788 1.49695,-9.687748 6.85834,-2.577679 14.51112,-0.340379 21.32358,1.255686 -1.14282,-1.074323 -2.97704,-1.561048 -4.5616,-2.132653 -6.81073,-1.706098 -14.4237,-2.266456 -21.11641,0.03934 -3.55609,0.964753 -6.26711,3.775105 -6.46518,6.857445 -2.22865,-0.89861 -4.31486,-2.14687 -6.52289,-3.13508 -7.82855,-3.233801 -13.41443,-9.255574 -16.92885,-15.709153 -2.730553,-4.124005 -3.929343,-8.783996 -5.515393,-13.217534 z m -7.87991,3.249661 c -0.667901,-0.0051 -1.324355,0.009 -1.94595,0.02028 -5.36001,0.626576 -9.592343,5.16667 -8.443964,9.605295 0.715894,2.779074 3.763788,4.560509 6.118799,6.357858 -4.854707,2.340292 -9.602121,6.33378 -9.871534,11.29468 -0.108226,2.71199 0.693711,5.5058 2.593959,7.76514 3.241661,3.90265 8.495531,6.2848 13.67937,8.08763 15.819043,5.16577 33.259923,4.71894 49.865483,3.33667 -5.79855,-0.27715 -12.06695,0.12175 -18.02109,-0.3893 -14.06566,-0.52949 -28.717163,-3.29102 -39.891745,-10.72268 -4.280564,-3.18733 -7.28674,-8.65446 -4.30333,-13.151112 1.675767,-2.355743 4.169166,-4.283243 6.999711,-5.688984 8.342781,4.219745 19.591894,3.178118 27.108454,8.901066 -6.40363,-6.270506 -17.785633,-5.173274 -25.51624,-9.786128 -3.090124,-1.880772 -6.61392,-4.239489 -6.909789,-7.603899 -0.504776,-3.238579 2.625145,-6.072285 6.223408,-6.975862 2.553668,-0.898686 5.367998,-0.356143 7.993168,0.03716 -1.56923,-0.896836 -3.67522,-1.074176 -5.67886,-1.087813 z m 6.61059,4.293051 c 0.75325,0.0076 1.49808,0.09596 2.10792,0.414216 0.44306,1.49576 1.35451,2.954154 1.60202,4.471761 -2.11254,0.661468 -4.04535,1.77822 -6.10995,2.532002 -2.66024,-1.657591 -3.58679,-6.711041 0.68631,-7.359237 0.53684,-0.02167 1.1278,-0.06459 1.71363,-0.05866 z m 3.91451,5.328279 c 1.43132,2.529926 3.429923,5.16513 5.512343,7.512595 -4.000363,-1.284472 -8.044143,-2.724617 -11.385843,-4.9665 1.42532,-1.276887 3.80048,-1.949027 5.8735,-2.546095 z m 76.050743,6.283616 c -0.68048,-0.0073 -1.36709,0.04988 -2.04785,0.1775 -5.59585,0.412644 -10.74348,3.827995 -12.37423,8.224278 2.75607,-3.964273 8.2462,-6.655721 13.88532,-6.842135 2.8098,0.03538 5.86099,1.130095 7.00117,3.375222 1.94679,2.971154 0.13575,6.368102 -1.35288,9.182752 -2.88758,5.35937 -6.73693,10.92003 -5.4741,17.01093 0.0406,0.16044 0.0701,0.67009 0.34166,0.53019 0.35034,-5.2691 2.23659,-10.38887 5.01335,-15.11978 2.17378,-3.23613 4.57898,-6.81089 3.97924,-10.634723 -0.88998,-3.414193 -4.81317,-5.860807 -8.97156,-5.905403 z m -72.59647,6.849338 c -0.92436,1.682189 -0.33976,3.854179 1.38776,5.069859 2.95168,2.45661 7.01807,3.58124 10.92128,4.60457 3.96047,0.8609 8.02338,1.58594 12.14217,1.4573 0.15072,-0.19547 -0.26933,-0.26545 -0.43272,-0.27216 -6.6162,-0.63482 -13.27327,-1.84999 -19.23614,-4.37512 -2.09018,-0.84895 -4.06538,-2.28209 -4.51469,-4.23474 -0.19261,-0.63592 0.58188,-1.863114 -0.26779,-2.24964 z"
       id="path90"
       style="stroke-width:0.132091" />
    <text
       xml:space="preserve"
       id="text2438"
       style="fill:black;fill-opacity:1;line-height:1.25;stroke:none;font-family:sans-serif;font-style:normal;font-weight:normal;font-size:40px;white-space:pre;shape-inside:url(#rect2440);" />
  </g>
</svg>
