<?xml version="1.0" encoding="UTF-8" standalone="no"?>
<svg
   xmlns:dc="http://purl.org/dc/elements/1.1/"
   xmlns:cc="http://creativecommons.org/ns#"
   xmlns:rdf="http://www.w3.org/1999/02/22-rdf-syntax-ns#"
   xmlns:svg="http://www.w3.org/2000/svg"
   xmlns="http://www.w3.org/2000/svg"
   xmlns:sodipodi="http://sodipodi.sourceforge.net/DTD/sodipodi-0.dtd"
   xmlns:inkscape="http://www.inkscape.org/namespaces/inkscape"
   width="280px"
   height="185px"
   viewBox="0 0 280 185"
   version="1.1"
   id="SVGRoot"
   sodipodi:docname="Logo_new.svg"
   inkscape:version="1.0.2-2 (e86c870879, 2021-01-15)">
  <defs
     id="defs6712" />
  <sodipodi:namedview
     id="base"
     pagecolor="#ffffff"
     bordercolor="#666666"
     borderopacity="1.0"
     inkscape:pageopacity="0.0"
     inkscape:pageshadow="2"
     inkscape:zoom="1.4"
     inkscape:cx="200.87915"
     inkscape:cy="92.024788"
     inkscape:document-units="px"
     inkscape:current-layer="layer1"
     inkscape:document-rotation="0"
     showgrid="false"
     inkscape:window-width="1376"
     inkscape:window-height="900"
     inkscape:window-x="2336"
     inkscape:window-y="92"
     inkscape:window-maximized="0" />
  <metadata
     id="metadata6715">
    <rdf:RDF>
      <cc:Work
         rdf:about="">
        <dc:format>image/svg+xml</dc:format>
        <dc:type
           rdf:resource="http://purl.org/dc/dcmitype/StillImage" />
        <dc:title></dc:title>
      </cc:Work>
    </rdf:RDF>
  </metadata>
  <g
     inkscape:label="Vrstva 1"
     inkscape:groupmode="layer"
     id="layer1">
    <text
       xml:space="preserve"
       style="font-style:normal;font-weight:normal;font-size:48.7922px;line-height:1.25;font-family:sans-serif;fill:#000000;fill-opacity:1;stroke:none;stroke-width:1.2198"
       x="182.17586"
       y="119.491"
       id="text48"
       transform="matrix(0.78150172,0.00546273,-0.00184984,1.2795748,0,0)"><tspan
         sodipodi:role="line"
         id="tspan46"
         x="182.17584"
         y="119.491"
         style="font-style:normal;font-variant:normal;font-weight:normal;font-stretch:normal;font-size:48.7922px;font-family:Sacramento;-inkscape-font-specification:'Sacramento, Normal';font-variant-ligatures:normal;font-variant-caps:normal;font-variant-numeric:normal;font-variant-east-asian:normal;text-align:center;text-anchor:middle;stroke-width:1.2198"
         rotate="0 0 0 0 0 0 0 0 0 0 0 0 0 0 0 0 0 0 0">Kavárna s příběhem</tspan></text>
    <path
       d="m 96.511077,3.6625216 c -2.92872,0.3014117 -5.79869,1.7225207 -7.07297,3.9485005 -1.81045,5.1549139 -0.26446,10.5545039 1.70404,15.5230449 3.52165,9.138685 7.63199,18.653157 16.120293,25.558512 5.11013,4.086842 12.97598,5.655459 19.69176,3.536392 4.99289,-1.510855 10.08662,-3.095538 15.4862,-3.157429 3.64407,0.135931 7.53921,1.498988 9.26175,4.284959 1.36291,4.40969 0.27533,9.188598 -2.70801,12.996489 -2.45157,3.501592 -6.23763,6.231896 -8.63527,9.751666 6.58549,-1.916323 11.04322,-6.841825 14.59459,-11.540438 2.57544,-3.43526 3.99713,-7.632629 3.02142,-11.648309 -0.6747,-3.587365 -4.66907,-6.170635 -8.81945,-6.922383 -7.22275,-1.440036 -14.71482,0.09659 -21.34955,2.50423 -3.9491,1.209375 -8.0679,3.277892 -12.42029,2.177212 -5.92481,-1.870761 -10.0232,-6.272262 -12.90469,-10.744981 -4.842293,-8.342115 -8.216423,-17.487327 -7.626493,-26.786977 0.2954,-2.250697 1.72609,-4.6133871 4.48812,-5.4023197 3.343413,-1.0996624 6.926273,0.2976797 9.539663,2.0291677 4.3304,3.08709 7.32212,7.199116 9.92424,11.3369 0.28117,-1.760417 -0.92327,-3.333739 -1.68858,-4.902701 C 113.17707,10.491272 107.05726,5.1619558 98.982597,3.6738313 l -2.47137,-0.011069 z m 29.340213,9.0738454 c -0.54627,0.0026 -1.09161,0.02888 -1.63284,0.0789 -1.579,0.196233 -3.40016,0.454662 -4.60113,1.227852 5.26038,-1.086278 11.1077,0.143087 15.25936,2.984196 2.54475,1.75634 3.99353,4.96207 2.35091,7.499744 -1.18964,2.220387 -4.21006,3.075228 -6.66186,4.085596 -7.55746,2.065072 -16.54572,3.306858 -21.49105,8.960794 5.73415,-3.511986 12.37653,-6.067909 19.39967,-7.330476 3.68113,-0.771655 7.55428,-1.947864 9.88855,-4.542233 1.50151,-2.071894 1.81389,-4.730329 0.78025,-6.998955 -2.63928,-3.841098 -8.01199,-5.992113 -13.29186,-5.965304 z M 76.947345,40.414475 c -0.205866,2.57e-4 -0.416149,0.01683 -0.630405,0.05009 -2.70658,0.776005 -3.591925,3.270431 -3.900117,5.370386 l -0.0025,1.203023 c 0.548188,3.396636 2.991027,6.360453 6.071587,8.598768 9.515087,7.101313 21.382267,11.465888 32.83326,16.013013 0.38168,0.246887 -0.28817,0.358846 -0.50865,0.437983 -2.83638,0.761086 -5.24704,2.291769 -7.68491,3.596414 -2.63701,-0.963821 -5.566683,-2.246006 -6.750543,-4.538013 -0.77975,-1.63003 1.11052,-2.712163 2.42261,-3.590108 -2.61592,0.684333 -3.98582,3.327273 -2.37364,5.237306 3.693573,4.061345 9.951743,5.605896 15.738653,6.528824 16.9353,2.487005 34.21437,0.684504 50.90472,-2.060779 -0.0208,-0.513166 -1.12644,-0.0015 -1.44858,-0.130944 -10.20255,1.452818 -20.56413,2.259097 -30.93358,2.032025 -1.53602,-0.09897 -3.40599,0.387775 -4.61012,-0.670086 C 116.1349,70.357043 101.86688,67.69661 91.056337,60.567968 85.378908,57.100494 79.685709,52.087764 80.203069,45.861426 c 0.360884,-0.884592 0.1653,-2.137775 1.268008,-2.684174 -0.947603,-1.335259 -2.533581,-2.769524 -4.523703,-2.762775 z m 5.293043,4.484961 c -1.099628,5.005004 2.719665,9.600445 6.976699,12.871269 11.827573,8.994147 27.431463,13.169877 40.921123,20.053393 -0.98098,-1.032936 -3.51654,-2.335954 -3.46284,-4.155993 0.12527,-1.209766 1.5987,-1.886065 2.80769,-2.337503 4.58676,-1.90855 9.90753,-1.377604 14.82165,-2.170026 -8.39664,-0.396439 -17.13962,0.767558 -25.66334,1.095275 -1.71863,0.01385 -3.15667,-0.833392 -4.68301,-1.342552 C 107.73967,66.030631 101.1013,63.510965 96.007697,59.284278 90.449517,55.271974 85.115456,50.279862 82.240388,44.899554 Z M 144.634,60.994726 c -0.5655,0.008 -1.24426,0.131217 -1.69464,0.109772 -11.88378,0.41076 -24.14993,0.225415 -35.52521,3.518369 0.82381,0.215376 2.18799,-0.475834 3.19176,-0.492863 11.41534,-2.292939 23.33555,-1.384379 34.84997,-2.97125 -0.18408,-0.133125 -0.48257,-0.169093 -0.82187,-0.164013 z m -49.094863,11.4048 c -0.37295,2.359179 0.28408,4.733633 0.7311,7.058221 -3.49315,-2.360967 -9.698517,-2.740285 -12.428548,0.672704 -2.52045,2.990601 -0.453669,7.07575 2.967657,8.962786 5.224771,3.057621 11.835091,3.715147 17.488924,6.064269 3.712,1.71612 6.97189,4.003086 10.62681,5.791914 3.00333,1.55268 6.40635,2.48046 9.44191,3.97111 -0.08,1.82709 1.20761,3.4033 2.63002,4.7097 3.35437,3.0875 7.56787,5.54977 12.24017,7.11112 9.43956,3.70799 19.34869,6.86422 29.72888,8.15936 l 1.84273,0.009 c -12.76485,-4.81961 -27.31947,-7.83891 -36.97922,-16.78028 -3.26907,-2.74507 -3.02664,-7.96788 1.49695,-9.687748 6.85834,-2.577679 14.51112,-0.340379 21.32358,1.255686 -1.14282,-1.074323 -2.97704,-1.561048 -4.5616,-2.132653 -6.81073,-1.706098 -14.4237,-2.266456 -21.11641,0.03934 -3.55609,0.964753 -6.26711,3.775105 -6.46518,6.857445 -2.22865,-0.89861 -4.31486,-2.14687 -6.52289,-3.13508 -7.82855,-3.233801 -13.41443,-9.255574 -16.92885,-15.709153 -2.730553,-4.124005 -3.929343,-8.783996 -5.515393,-13.217534 z m -7.87991,3.249661 c -0.667901,-0.0051 -1.324355,0.009 -1.94595,0.02028 -5.36001,0.626576 -9.592343,5.16667 -8.443964,9.605295 0.715894,2.779074 3.763788,4.560509 6.118799,6.357858 -4.854707,2.340292 -9.602121,6.33378 -9.871534,11.29468 -0.108226,2.71199 0.693711,5.5058 2.593959,7.76514 3.241661,3.90265 8.495531,6.2848 13.67937,8.08763 15.819043,5.16577 33.259923,4.71894 49.865483,3.33667 -5.79855,-0.27715 -12.06695,0.12175 -18.02109,-0.3893 -14.06566,-0.52949 -28.717163,-3.29102 -39.891745,-10.72268 -4.280564,-3.18733 -7.28674,-8.65446 -4.30333,-13.151112 1.675767,-2.355743 4.169166,-4.283243 6.999711,-5.688984 8.342781,4.219745 19.591894,3.178118 27.108454,8.901066 -6.40363,-6.270506 -17.785633,-5.173274 -25.51624,-9.786128 -3.090124,-1.880772 -6.61392,-4.239489 -6.909789,-7.603899 -0.504776,-3.238579 2.625145,-6.072285 6.223408,-6.975862 2.553668,-0.898686 5.367998,-0.356143 7.993168,0.03716 -1.56923,-0.896836 -3.67522,-1.074176 -5.67886,-1.087813 z m 6.61059,4.293051 c 0.75325,0.0076 1.49808,0.09596 2.10792,0.414216 0.44306,1.49576 1.35451,2.954154 1.60202,4.471761 -2.11254,0.661468 -4.04535,1.77822 -6.10995,2.532002 -2.66024,-1.657591 -3.58679,-6.711041 0.68631,-7.359237 0.53684,-0.02167 1.1278,-0.06459 1.71363,-0.05866 z m 3.91451,5.328279 c 1.43132,2.529926 3.429923,5.16513 5.512343,7.512595 -4.000363,-1.284472 -8.044143,-2.724617 -11.385843,-4.9665 1.42532,-1.276887 3.80048,-1.949027 5.8735,-2.546095 z m 76.050743,6.283616 c -0.68048,-0.0073 -1.36709,0.04988 -2.04785,0.1775 -5.59585,0.412644 -10.74348,3.827995 -12.37423,8.224278 2.75607,-3.964273 8.2462,-6.655721 13.88532,-6.842135 2.8098,0.03538 5.86099,1.130095 7.00117,3.375222 1.94679,2.971154 0.13575,6.368102 -1.35288,9.182752 -2.88758,5.35937 -6.73693,10.92003 -5.4741,17.01093 0.0406,0.16044 0.0701,0.67009 0.34166,0.53019 0.35034,-5.2691 2.23659,-10.38887 5.01335,-15.11978 2.17378,-3.23613 4.57898,-6.81089 3.97924,-10.634723 -0.88998,-3.414193 -4.81317,-5.860807 -8.97156,-5.905403 z m -72.59647,6.849338 c -0.92436,1.682189 -0.33976,3.854179 1.38776,5.069859 2.95168,2.45661 7.01807,3.58124 10.92128,4.60457 3.96047,0.8609 8.02338,1.58594 12.14217,1.4573 0.15072,-0.19547 -0.26933,-0.26545 -0.43272,-0.27216 -6.6162,-0.63482 -13.27327,-1.84999 -19.23614,-4.37512 -2.09018,-0.84895 -4.06538,-2.28209 -4.51469,-4.23474 -0.19261,-0.63592 0.58188,-1.863114 -0.26779,-2.24964 z"
       id="path90"
       style="stroke-width:0.132091" />
  </g>
</svg>
