<?xml version="1.0" encoding="UTF-8" standalone="no"?>
<svg
   xmlns:dc="http://purl.org/dc/elements/1.1/"
   xmlns:cc="http://creativecommons.org/ns#"
   xmlns:rdf="http://www.w3.org/1999/02/22-rdf-syntax-ns#"
   xmlns:svg="http://www.w3.org/2000/svg"
   xmlns="http://www.w3.org/2000/svg"
   xmlns:sodipodi="http://sodipodi.sourceforge.net/DTD/sodipodi-0.dtd"
   xmlns:inkscape="http://www.inkscape.org/namespaces/inkscape"
   width="1000px"
   height="600px"
   viewBox="0 0 1000 600"
   version="1.1"
   id="SVGRoot"
   sodipodi:docname="logo.svg"
   inkscape:version="1.0.2-2 (e86c870879, 2021-01-15)">
  <defs
     id="defs11129" />
  <sodipodi:namedview
     id="base"
     pagecolor="#ffffff"
     bordercolor="#666666"
     borderopacity="1.0"
     inkscape:pageopacity="0.0"
     inkscape:pageshadow="2"
     inkscape:zoom="0.35"
     inkscape:cx="400"
     inkscape:cy="560"
     inkscape:document-units="px"
     inkscape:current-layer="layer1"
     inkscape:document-rotation="0"
     showgrid="false"
     inkscape:window-width="1376"
     inkscape:window-height="900"
     inkscape:window-x="2300"
     inkscape:window-y="97"
     inkscape:window-maximized="0" />
  <metadata
     id="metadata11132">
    <rdf:RDF>
      <cc:Work
         rdf:about="">
        <dc:format>image/svg+xml</dc:format>
        <dc:type
           rdf:resource="http://purl.org/dc/dcmitype/StillImage" />
        <dc:title></dc:title>
      </cc:Work>
    </rdf:RDF>
  </metadata>
  <g
     inkscape:label="Vrstva 1"
     inkscape:groupmode="layer"
     id="layer1">
    <g
       id="g44"
       transform="matrix(4.8792615,0.02245329,-0.0096193,4.3805155,300.8855,554.91269)">
      <path
         d="m 14.728434,-122.52586 c -2.099939,0.25793 -4.155934,1.43381 -5.0662211,3.26383 -1.2900969,4.23376 -0.1726088,8.65582 1.2471991,12.72286 2.540435,7.480906 5.503684,15.267805 11.602507,20.899093 3.671493,3.332483 9.315275,4.589856 14.128291,2.827505 3.578373,-1.257276 7.22894,-2.575467 11.101324,-2.646069 2.61368,0.09807 5.40941,1.201476 6.649285,3.479685 0.984577,3.610998 0.21231,7.533771 -1.921125,10.667263 -1.752558,2.880369 -4.463443,5.133178 -6.177295,8.028254 4.719895,-1.595625 7.908938,-5.650992 10.448322,-9.516981 1.841504,-2.826427 2.854326,-6.273558 2.148077,-9.562887 -0.489681,-2.939212 -3.358548,-5.042848 -6.336338,-5.644032 -5.182364,-1.154304 -10.553061,0.133294 -15.307483,2.131987 -2.830262,1.006219 -5.780849,2.717574 -8.904079,1.831002 -4.252195,-1.512274 -7.198598,-5.1065 -9.27238,-8.763602 -3.486295,-6.822854 -5.92095,-14.309658 -5.512889,-21.937678 0.208216,-1.84669 1.230458,-3.78939 3.210072,-4.44648 2.396044,-0.91403 4.967869,0.21864 6.844945,1.62888 3.110671,2.51554 5.262927,5.87646 7.13582,9.25994 0.198796,-1.4446 -0.667546,-2.73032 -1.218951,-4.01408 -2.835494,-4.67008 -7.233125,-9.0177 -13.026531,-10.2083 h -1.772445 z m 21.056943,7.33283 c -0.39177,0.004 -0.782838,0.0277 -1.170923,0.0707 -1.132104,0.16672 -2.437791,0.38533 -3.297856,1.02377 3.770892,-0.9101 7.966479,0.0765 10.94856,2.39099 1.8279,1.43087 2.872118,4.05429 1.698158,6.14126 -0.8496,1.82512 -3.014413,2.53721 -4.771164,3.37474 -5.416732,1.72117 -11.860942,2.772493 -15.398508,7.426982 4.106758,-2.900961 8.866413,-5.021271 13.901243,-6.082412 2.63879,-0.6463 5.414645,-1.62505 7.08455,-3.76105 1.073513,-1.7045 1.293238,-3.88561 0.548266,-5.74211 -1.89905,-3.14006 -5.75574,-4.88417 -9.542326,-4.84278 z M 0.75708812,-92.316806 c -0.14764372,9.71e-4 -0.29842741,0.01534 -0.45203558,0.04339 -1.93985464,0.646288 -2.57077804,2.695007 -2.78841024,4.418135 v 0.986506 c 0.3986436,2.783274 2.15539356,5.204667 4.3683344,7.028797 6.8355282,5.7882 15.3535183,9.32359 23.5733113,13.010206 0.274132,0.201047 -0.206092,0.295314 -0.364082,0.361021 -2.032975,0.634526 -3.759384,1.898572 -5.505672,2.977363 -1.892771,-0.780653 -3.995953,-1.821293 -4.848694,-3.696424 -0.561867,-1.333778 0.792055,-2.228093 1.731639,-2.952844 -1.874982,0.570777 -2.853175,2.743067 -1.693866,4.30339 2.655527,3.316787 7.146279,4.560339 11.29803,5.295877 12.149722,1.977128 24.539054,0.435526 36.504626,-1.876995 -0.01573,-0.420727 -0.80787,0.0028 -1.039108,-0.102054 -7.314734,1.228839 -14.744567,1.928091 -22.181722,1.780004 -1.101761,-0.07551 -2.442085,0.330501 -3.307379,-0.532533 -7.142096,-6.634554 -17.379171,-8.763694 -25.14382,-14.569546 -4.0773561,-2.822506 -8.1685244,-6.912091 -7.8075473,-12.019678 0.2573911,-0.726704 0.1150937,-1.753616 0.9050553,-2.205724 -0.6817631,-1.091448 -1.821517,-2.261738 -3.24878496,-2.248888 z m 3.80332878,3.658277 c -0.7805455,4.108221 1.9660126,7.86251 5.0243697,10.528981 8.4970644,7.331852 19.6946484,10.698655 29.3803194,16.293648 -0.705214,-0.843417 -2.525785,-1.902592 -2.49021,-3.395245 0.08789,-0.992485 1.143507,-1.552475 2.009848,-1.927108 3.286453,-1.581898 7.10328,-1.166074 10.626305,-1.833942 -6.02255,-0.294215 -12.29098,0.692415 -18.403509,0.992485 -1.232549,0.01767 -2.265256,-0.671791 -3.360738,-1.083694 -4.464595,-2.340972 -9.229587,-4.38273 -12.889466,-7.829953 -3.99271,-3.269714 -7.8262757,-7.343711 -9.8969191,-11.745075 z m 44.7735971,12.96901 c -0.405556,0.0087 -0.892143,0.112174 -1.215181,0.09624 -8.522175,0.380519 -17.319532,0.273623 -25.47236,3.01571 0.591164,0.173585 1.568416,-0.398231 2.288276,-0.415885 8.183171,-1.922208 16.733598,-1.220992 24.988966,-2.564578 -0.132229,-0.108489 -0.34636,-0.136889 -0.589691,-0.131473 z m -35.191511,9.532579 c -0.263669,1.935936 0.211383,3.880602 0.535742,5.785154 -2.509048,-1.923185 -6.96004,-2.21142 -8.9124498,0.597318 -1.8027887,2.4616 -0.3139239,5.803887 2.1428383,7.338708 3.7520585,2.488085 8.4939255,3.002961 12.5525535,4.908497 2.664945,1.393598 5.006582,3.256961 7.630721,4.710385 2.156442,1.262185 4.598521,2.010471 6.777982,3.221659 -0.05441,1.498537 0.871573,2.786316 1.893816,3.852358 2.410693,2.519463 5.436509,4.523072 8.789927,5.786232 6.775885,3.005902 13.887636,5.557632 21.334213,6.581501 h 1.321592 c -9.162521,-3.905219 -19.605713,-6.327591 -26.547967,-13.62413 -2.348959,-2.23898 -2.183537,-6.522657 1.057921,-7.949601 4.91451,-2.138947 10.406573,-0.332462 15.29493,0.951294 -0.821353,-0.87676 -2.137611,-1.269144 -3.274945,-1.732042 -4.8873,-1.373987 -10.348089,-1.805504 -15.144259,0.109869 -2.548803,0.804188 -4.488554,3.118684 -4.625622,5.646973 -1.599803,-0.728675 -3.098012,-1.7446 -4.683169,-2.546825 -5.619716,-2.622441 -9.635549,-7.539857 -12.166463,-12.818965 -1.964968,-3.371706 -2.83225,-7.188563 -3.976911,-10.818297 z m -5.6460859,2.693736 c -0.4790103,-0.0014 -0.9497853,0.01221 -1.3955649,0.02376 -3.8430885,0.533511 -6.87110229,4.272006 -6.0403342,7.907526 0.517922,2.276246 2.7066934,3.725847 4.3985731,5.19104 -3.4779266,1.936916 -6.8762298,5.229089 -7.0614259,9.298088 -0.073238,2.224267 0.5064126,4.51228 1.87289023,6.357994 2.33117357,3.188313 6.10300807,5.122387 9.82367757,6.581692 11.353485,4.177858 23.861047,3.747324 35.768027,2.552811 -4.15907,-0.205952 -8.654008,0.144193 -12.925038,-0.252994 -10.088497,-0.382482 -20.600751,-2.593118 -28.6269773,-8.646106 -3.0750982,-2.597921 -5.23990883,-7.069997 -3.1075333,-10.768284 1.1980223,-1.9379 2.9831274,-3.527644 5.0108721,-4.690774 5.9901115,3.429571 14.0560975,2.534076 19.4560915,7.199351 -4.602708,-5.118374 -12.763908,-4.176784 -18.3156165,-7.93097 -2.219218,-1.530903 -4.7502371,-3.452128 -4.9678693,-6.20991 -0.3672534,-2.65382 1.8728911,-4.989009 4.4520396,-5.74318 1.8299924,-0.746327 3.8492612,-0.311778 5.7326152,0.0011 -1.126875,-0.729653 -2.6375325,-0.867333 -4.0745317,-0.871151 z m 4.7479359,3.496063 c 0.54024,0.0035 1.074556,0.07318 1.512436,0.331916 0.320172,1.224915 0.976205,2.417467 1.156171,3.661018 -1.514008,0.550181 -2.898378,1.473038 -4.377856,2.098738 -1.9105576,-1.349467 -2.583229,-5.489962 0.480318,-6.037201 0.384978,-0.01973 0.808733,-0.05711 1.228887,-0.0544 z m 2.816032,4.354875 c 1.030612,2.069317 2.468239,4.222876 3.965505,6.140178 -2.871069,-1.038579 -5.773525,-2.204654 -8.173755,-4.03075 1.020151,-1.052308 2.722492,-1.6122 4.20825,-2.109428 z m 54.552391,4.873091 c -0.488035,-0.0035 -0.980373,0.04593 -1.46839,0.153081 -4.012584,0.358942 -7.69884,3.178507 -8.861282,6.789511 1.970192,-3.260888 5.903266,-5.488098 9.947241,-5.661686 2.015194,0.01866 4.20522,0.905145 5.026573,2.741989 1.401002,2.429237 0.107645,5.22144 -0.955412,7.534954 -2.062267,4.405382 -4.813951,8.979357 -3.898437,13.969344 0.02934,0.131414 0.05132,0.549232 0.245889,0.433508 0.242744,-4.322025 1.587246,-8.527245 3.571042,-12.416871 1.553768,-2.661665 3.272958,-5.601858 2.836649,-8.735251 -0.6438,-2.79642 -3.461392,-4.788259 -6.44379,-4.809537 z m -52.053809,5.883422 c -0.660221,1.382817 -0.237448,3.161738 1.003473,4.152264 2.120865,2.003607 5.039016,2.910868 7.839983,3.735652 2.84177,0.691406 5.756785,1.27101 8.710511,1.150384 0.107769,-0.160839 -0.193597,-0.21668 -0.310784,-0.221583 -4.746051,-0.496243 -9.522344,-1.468233 -13.802891,-3.516954 -1.500407,-0.688465 -2.919303,-1.856401 -3.244704,-3.455952 -0.13916,-0.520759 0.414305,-1.529918 -0.195692,-1.84375 z"
         id="path90"
         style="stroke-width:0.101298" />
    </g>
    <text
       xml:space="preserve"
       style="font-style:normal;font-weight:normal;font-size:137.811px;line-height:1.25;font-family:sans-serif;fill:#000000;fill-opacity:1;stroke:none;stroke-width:3.44529"
       x="144.74898"
       y="538.66132"
       id="text48"
       transform="matrix(0.95241323,0.00448243,-0.00225438,1.0499538,0,0)"><tspan
         sodipodi:role="line"
         id="tspan46"
         x="144.74898"
         y="538.66132"
         style="font-style:normal;font-variant:normal;font-weight:normal;font-stretch:normal;font-size:137.811px;font-family:Mistral;-inkscape-font-specification:'Mistral, Normal';font-variant-ligatures:normal;font-variant-caps:normal;font-variant-numeric:normal;font-variant-east-asian:normal;stroke-width:3.44529">Kavárna s příběhem</tspan></text>
  </g>
</svg>
