<?xml version="1.0" encoding="UTF-8" standalone="no"?>
<svg
   xmlns:dc="http://purl.org/dc/elements/1.1/"
   xmlns:cc="http://creativecommons.org/ns#"
   xmlns:rdf="http://www.w3.org/1999/02/22-rdf-syntax-ns#"
   xmlns:svg="http://www.w3.org/2000/svg"
   xmlns="http://www.w3.org/2000/svg"
   xmlns:sodipodi="http://sodipodi.sourceforge.net/DTD/sodipodi-0.dtd"
   xmlns:inkscape="http://www.inkscape.org/namespaces/inkscape"
   width="600px"
   height="340px"
   viewBox="0 0 600 340"
   version="1.1"
   id="SVGRoot"
   sodipodi:docname="logo2.svg"
   inkscape:version="1.0.2-2 (e86c870879, 2021-01-15)">
  <defs
     id="defs15978" />
  <sodipodi:namedview
     id="base"
     pagecolor="#ffffff"
     bordercolor="#666666"
     borderopacity="1.0"
     inkscape:pageopacity="0.0"
     inkscape:pageshadow="2"
     inkscape:zoom="0.49497475"
     inkscape:cx="436.82086"
     inkscape:cy="508.9529"
     inkscape:document-units="px"
     inkscape:current-layer="g17594"
     inkscape:document-rotation="0"
     showgrid="false"
     inkscape:window-width="1376"
     inkscape:window-height="900"
     inkscape:window-x="1626"
     inkscape:window-y="26"
     inkscape:window-maximized="0" />
  <metadata
     id="metadata15981">
    <rdf:RDF>
      <cc:Work
         rdf:about="">
        <dc:format>image/svg+xml</dc:format>
        <dc:type
           rdf:resource="http://purl.org/dc/dcmitype/StillImage" />
        <dc:title></dc:title>
      </cc:Work>
    </rdf:RDF>
  </metadata>
  <g
     inkscape:label="Vrstva 1"
     inkscape:groupmode="layer"
     id="layer1">
    <g
       id="g17594">
      <g
         id="g17599">
        <path
           d="m 50.24912,53.959879 c -5.720858,0.585524 -11.32695,3.346155 -13.816066,7.670321 -3.536482,10.013883 -0.516602,20.503073 3.328601,30.154913 6.879048,17.752717 14.90804,36.235437 31.488771,49.649707 9.981919,7.93906 25.346769,10.98624 38.465124,6.86976 9.75293,-2.93497 19.70282,-6.01336 30.25017,-6.13359 7.11818,0.26406 14.7268,2.91192 18.09153,8.32392 2.66225,8.56622 0.53781,17.84968 -5.28971,25.24685 -4.7888,6.80216 -12.18436,12.10602 -16.86782,18.94349 12.86384,-3.72263 21.57141,-13.29086 28.50852,-22.41834 5.03076,-6.6733 7.80783,-14.82707 5.90193,-22.62789 -1.31793,-6.96878 -9.12038,-11.98701 -17.22757,-13.44735 -14.10866,-2.7974 -28.74339,0.18764 -41.70343,4.86469 -7.71401,2.34932 -15.759516,6.3676 -24.261296,4.22943 C 75.544563,141.65167 67.538938,133.10136 61.910352,124.4127 52.45159,108.20739 45.860679,90.441993 47.013046,72.376583 c 0.577025,-4.37218 3.371669,-8.961918 8.766936,-10.494491 6.530859,-2.136194 13.529496,0.578269 18.634393,3.941841 8.458823,5.99695 14.302737,13.98493 19.385645,22.02295 0.549206,-3.41977 -1.803491,-6.47609 -3.298423,-9.52394 -7.697778,-11.0976 -19.651973,-21.450276 -35.424698,-24.34109 l -4.827494,-0.02153 z m 57.31205,17.626764 c -1.06706,0.005 -2.13231,0.0561 -3.18954,0.15327 -3.08434,0.3812 -6.64173,0.88322 -8.987661,2.38521 10.275421,-2.11019 21.697371,0.27796 29.807041,5.79707 4.97084,3.41185 7.80083,9.63927 4.59218,14.56893 -2.32379,4.3133 -8.22378,5.973907 -13.01302,7.936637 -14.76244,4.01159 -32.319771,6.42387 -41.979794,17.40715 11.200882,-6.82235 24.175834,-11.78746 37.894574,-14.24011 7.19057,-1.49901 14.75624,-3.7839 19.31592,-8.823697 2.93301,-4.02484 3.54317,-9.18909 1.5241,-13.5961 -5.15545,-7.46168 -15.6503,-11.64022 -25.9638,-11.58814 z M 12.034061,125.35386 c -0.402132,5e-4 -0.812889,0.0327 -1.231406,0.0973 -5.2869334,1.50746 -7.0163344,6.35311 -7.6183404,10.43246 l -0.0047,2.33698 c 1.07081,6.59827 5.842556,12.35575 11.8600044,16.70388 18.586406,13.79494 41.767309,22.27352 64.135228,31.10672 0.745562,0.4796 -0.562899,0.69709 -0.993556,0.85082 -5.540494,1.47848 -10.249386,4.45197 -15.011434,6.98636 -5.151023,-1.87231 -10.873733,-4.36307 -13.186228,-8.8155 -1.523153,-3.16648 2.169234,-5.26862 4.732212,-6.97411 -5.109827,1.32938 -7.785737,6.46353 -4.636578,10.17394 7.214878,7.88953 19.439361,10.88996 30.743276,12.68283 33.080791,4.83123 66.833081,1.32971 99.435351,-4.00325 -0.0406,-0.99687 -2.20036,-0.003 -2.82961,-0.25437 -19.92926,2.82223 -40.16916,4.3885 -60.42446,3.94739 -3.0004,-0.19225 -6.65313,0.75329 -9.00524,-1.3017 C 88.581747,183.51999 60.71112,178.35186 39.594232,164.50383 28.504154,157.76795 17.383271,148.03027 18.393859,135.93505 c 0.704944,-1.7184 0.322893,-4.15282 2.476881,-5.21425 -1.851005,-2.59386 -4.948994,-5.38005 -8.836429,-5.36694 z m 10.339236,8.71244 c -2.147975,9.72267 5.312484,18.64973 13.628017,25.0036 23.103527,17.47194 53.583581,25.58367 79.933776,38.95552 -1.91622,-2.00657 -6.8691,-4.5378 -6.7642,-8.07339 0.24471,-2.35008 3.12284,-3.66385 5.48444,-4.54081 8.9596,-3.70753 19.353,-2.67612 28.95203,-4.21547 -16.40165,-0.77012 -33.47986,1.49105 -50.129777,2.12767 -3.357107,0.0269 -6.166124,-1.61894 -9.1476,-2.60803 C 72.182621,175.11555 59.215492,170.22087 49.265831,162.01015 38.408702,154.21589 27.989344,144.51826 22.373297,134.06653 Z m 121.877293,31.26655 c -1.10463,0.0156 -2.43047,0.2549 -3.31023,0.21324 -23.21333,0.79794 -47.173548,0.43789 -69.393599,6.83475 1.609184,0.41839 4.273932,-0.92435 6.234667,-0.95743 22.298292,-4.45424 45.582762,-2.68928 68.074592,-5.77192 -0.35956,-0.25861 -0.94263,-0.32848 -1.6054,-0.31861 z M 48.350574,187.4877 c -0.72853,4.58292 0.554901,9.19551 1.428108,13.71123 -6.823403,-4.58639 -18.944729,-5.32325 -24.277465,1.30679 -4.923357,5.80951 -0.886182,13.74528 5.796904,17.41102 10.205873,5.9397 23.118221,7.217 34.162211,11.78039 7.250859,3.33371 13.618614,7.77635 20.758004,11.2513 5.866589,3.01624 12.513904,4.81854 18.443454,7.71424 -0.15624,3.5493 2.35889,6.61122 5.13738,9.14903 6.55232,5.99774 14.78278,10.78092 23.90948,13.814 18.43889,7.2031 37.79501,13.33436 58.07127,15.85028 l 3.59953,0.016 c -24.93439,-9.36252 -53.36483,-15.22779 -72.23381,-32.5972 -6.38568,-5.33254 -5.91214,-15.47833 2.92407,-18.81932 13.39683,-5.00738 28.34549,-0.66123 41.6527,2.43928 -2.23236,-2.08698 -5.81526,-3.03249 -8.91046,-4.14288 -13.30384,-3.31424 -28.17471,-4.40279 -41.24801,0.0764 -6.94633,1.87413 -12.24193,7.3335 -12.62883,13.32121 -4.35336,-1.74562 -8.428486,-4.17048 -12.741567,-6.09016 C 76.901562,237.39866 65.990309,225.70081 59.125367,213.16415 53.791615,205.1529 51.44995,196.10045 48.351809,187.4879 Z m -15.392336,6.31276 c -1.304643,-0.01 -2.586934,0.0174 -3.801139,0.0394 -10.470034,1.21718 -18.737313,10.03672 -16.494121,18.65915 1.398405,5.3986 7.35204,8.8592 11.952237,12.35071 -9.483003,4.54622 -18.7564254,12.30394 -19.2826784,21.94092 -0.211415,5.26829 1.355062,10.69551 5.0669314,15.08449 6.332144,7.58125 16.594857,12.20878 26.720768,15.71096 30.90032,10.03498 64.968664,9.16695 97.405344,6.48179 -11.32668,-0.5384 -23.57113,0.2365 -35.20172,-0.75627 -27.475341,-1.02858 -56.095006,-6.39311 -77.923013,-20.82976 -8.361498,-6.19168 -14.2336434,-16.81207 -8.405962,-25.54722 3.273375,-4.57624 8.14389,-8.32058 13.672966,-11.05136 16.296461,8.19722 38.270066,6.17378 52.952632,17.29113 -12.508612,-12.18104 -34.7418,-10.04956 -49.842465,-19.01044 -6.036123,-3.65357 -12.919378,-8.23559 -13.497314,-14.77126 -0.986015,-6.29123 5.127856,-11.79596 12.156566,-13.55124 4.988233,-1.74578 10.48565,-0.69184 15.613544,0.0722 -3.065275,-1.74219 -7.179019,-2.08669 -11.092861,-2.11318 z m 12.912871,8.33964 c 1.471394,0.0149 2.926308,0.1864 4.117544,0.80465 0.865455,2.90565 2.645846,5.73871 3.129335,8.6868 -4.126568,1.28496 -7.90204,3.45435 -11.934959,4.91864 -5.196419,-3.22002 -7.006293,-13.0368 1.340624,-14.29598 1.048649,-0.0421 2.203002,-0.12547 3.347342,-0.11395 z m 7.646465,10.35066 c 2.795899,4.91461 6.6999,10.03373 10.767613,14.5939 -7.814167,-2.49521 -15.713139,-5.29282 -22.240683,-9.64788 2.784168,-2.48047 7.423728,-3.78616 11.47307,-4.94602 z m 148.554616,12.20649 c -1.32921,-0.0142 -2.67042,0.0969 -4.00018,0.34481 -10.93073,0.8016 -20.9859,7.43623 -24.17135,15.97639 5.38359,-7.70094 16.10782,-12.92933 27.12305,-13.29145 5.48856,0.0687 11.44863,2.19531 13.67584,6.55667 3.80277,5.77174 0.26514,12.37061 -2.64266,17.8383 -5.64051,10.41107 -13.15966,21.21316 -10.69292,33.04529 0.0792,0.31166 0.13682,1.30171 0.66738,1.02993 0.68435,-10.23569 4.36887,-20.18131 9.79288,-29.37153 4.24619,-6.28648 8.94443,-13.23077 7.7729,-20.6589 -1.73846,-6.63239 -9.40185,-11.38515 -17.5247,-11.47178 z M 60.265035,238.0027 c -1.805629,3.2678 -0.663701,7.4871 2.710798,9.84867 5.765701,4.77219 13.708815,6.95688 21.333195,8.94476 7.736229,1.6724 15.672562,3.08085 23.718072,2.83096 0.29439,-0.37971 -0.52612,-0.51566 -0.84527,-0.52869 -12.92384,-1.2332 -25.927505,-3.59379 -37.575154,-8.49908 -4.082863,-1.64915 -7.941147,-4.43316 -8.818827,-8.22636 -0.376229,-1.23533 1.136628,-3.61926 -0.52309,-4.37013 z"
           id="path90"
           style="stroke-width:0.257309" />
        <text
           xml:space="preserve"
           style="font-style:normal;font-weight:normal;font-size:76.9532px;line-height:1.25;font-family:sans-serif;fill:#000000;fill-opacity:1;stroke:none;stroke-width:1.92384"
           x="217.03603"
           y="168.65298"
           id="text48"
           transform="matrix(0.85136005,0.00501448,-0.00201519,1.1745793,0,0)"><tspan
             sodipodi:role="line"
             id="tspan46"
             x="217.03603"
             y="168.65298"
             style="font-style:normal;font-variant:normal;font-weight:normal;font-stretch:normal;font-size:76.9532px;font-family:Mistral;-inkscape-font-specification:'Mistral, Normal';font-variant-ligatures:normal;font-variant-caps:normal;font-variant-numeric:normal;font-variant-east-asian:normal;stroke-width:1.92384">Kavárna s příběhem</tspan></text>
      </g>
    </g>
  </g>
</svg>
