<?xml version="1.0" encoding="UTF-8" standalone="no"?>
<svg
   xmlns:dc="http://purl.org/dc/elements/1.1/"
   xmlns:cc="http://creativecommons.org/ns#"
   xmlns:rdf="http://www.w3.org/1999/02/22-rdf-syntax-ns#"
   xmlns:svg="http://www.w3.org/2000/svg"
   xmlns="http://www.w3.org/2000/svg"
   xmlns:sodipodi="http://sodipodi.sourceforge.net/DTD/sodipodi-0.dtd"
   xmlns:inkscape="http://www.inkscape.org/namespaces/inkscape"
   width="600px"
   height="340px"
   viewBox="0 0 600 340"
   version="1.1"
   id="SVGRoot"
   sodipodi:docname="logo2.svg"
   inkscape:version="1.0.2-2 (e86c870879, 2021-01-15)">
  <defs
     id="defs15978" />
  <sodipodi:namedview
     id="base"
     pagecolor="#ffffff"
     bordercolor="#666666"
     borderopacity="1.0"
     inkscape:pageopacity="0.0"
     inkscape:pageshadow="2"
     inkscape:zoom="0.49497475"
     inkscape:cx="455.00361"
     inkscape:cy="527.13565"
     inkscape:document-units="px"
     inkscape:current-layer="g17599"
     inkscape:document-rotation="0"
     showgrid="false"
     inkscape:window-width="1376"
     inkscape:window-height="900"
     inkscape:window-x="1626"
     inkscape:window-y="26"
     inkscape:window-maximized="0" />
  <metadata
     id="metadata15981">
    <rdf:RDF>
      <cc:Work
         rdf:about="">
        <dc:format>image/svg+xml</dc:format>
        <dc:type
           rdf:resource="http://purl.org/dc/dcmitype/StillImage" />
        <dc:title />
      </cc:Work>
    </rdf:RDF>
  </metadata>
  <g
     inkscape:label="Vrstva 1"
     inkscape:groupmode="layer"
     id="layer1">
    <g
       id="g17594">
      <g
         id="g17599">
        <path
           d="m 244.19841,7.4928622 c -5.72086,0.585524 -11.32695,3.3461548 -13.81607,7.6703208 -3.53648,10.013883 -0.5166,20.503073 3.3286,30.154913 6.87905,17.752717 14.90804,36.235437 31.48877,49.649707 9.98192,7.939057 25.34677,10.986237 38.46513,6.869757 9.75293,-2.934967 19.70282,-6.013357 30.25017,-6.133587 7.11818,0.26406 14.7268,2.91192 18.09153,8.323917 2.66225,8.56622 0.53781,17.84968 -5.28971,25.24685 -4.7888,6.80216 -12.18436,12.10602 -16.86782,18.94349 12.86384,-3.72263 21.57141,-13.29086 28.50852,-22.41834 5.03076,-6.6733 7.80783,-14.82707 5.90193,-22.62789 -1.31793,-6.968777 -9.12038,-11.987007 -17.22757,-13.447347 -14.10866,-2.7974 -28.74339,0.18764 -41.70343,4.86469 -7.71401,2.34932 -15.75952,6.367597 -24.2613,4.22943 -11.57331,-3.63412 -19.57893,-12.18443 -25.20752,-20.87309 -9.45876,-16.20531 -16.04967,-33.970707 -14.89731,-52.036117 0.57703,-4.37218 3.37167,-8.961918 8.76694,-10.494491 6.53086,-2.136194 13.5295,0.578269 18.63439,3.941841 8.45883,5.99695 14.30274,13.98493 19.38565,22.02295 0.5492,-3.41977 -1.80349,-6.47609 -3.29843,-9.52394 -7.69777,-11.0976 -19.65197,-21.450276 -35.42469,-24.3410898 l -4.8275,-0.02153 z m 57.31205,17.6267638 c -1.06706,0.005 -2.13231,0.0561 -3.18954,0.15327 -3.08434,0.3812 -6.64173,0.88322 -8.98766,2.38521 10.27542,-2.11019 21.69737,0.27796 29.80704,5.79707 4.97084,3.41185 7.80083,9.63927 4.59218,14.56893 -2.32379,4.3133 -8.22378,5.973907 -13.01302,7.936637 -14.76244,4.01159 -32.31977,6.42387 -41.9798,17.40715 11.20089,-6.82235 24.17584,-11.78746 37.89458,-14.24011 7.19057,-1.49901 14.75624,-3.7839 19.31592,-8.823697 2.93301,-4.02484 3.54317,-9.18909 1.5241,-13.5961 -5.15545,-7.46168 -15.6503,-11.64022 -25.9638,-11.58814 z m -95.52711,53.767217 c -0.40213,5e-4 -0.81289,0.0327 -1.23141,0.0973 -5.28693,1.50746 -7.01633,6.35311 -7.61834,10.43246 l -0.005,2.33698 c 1.07081,6.59827 5.84256,12.355747 11.86001,16.703877 18.5864,13.79494 41.76731,22.27352 64.13522,31.10672 0.74557,0.4796 -0.56289,0.69709 -0.99355,0.85082 -5.5405,1.47848 -10.24939,4.45197 -15.01144,6.98636 -5.15102,-1.87231 -10.87373,-4.36307 -13.18622,-8.8155 -1.52316,-3.16648 2.16923,-5.26862 4.73221,-6.97411 -5.10983,1.32938 -7.78574,6.46353 -4.63658,10.17394 7.21488,7.88953 19.43936,10.88996 30.74328,12.68283 33.08079,4.83123 66.83308,1.32971 99.43535,-4.00325 -0.0406,-0.99687 -2.20036,-0.003 -2.82961,-0.25437 -19.92926,2.82223 -40.16916,4.3885 -60.42446,3.94739 -3.0004,-0.19225 -6.65313,0.75329 -9.00524,-1.3017 -19.41684,-15.80362 -47.28746,-20.97175 -68.40435,-34.81978 -11.09008,-6.73588 -22.21096,-16.47356 -21.20037,-28.568777 0.70494,-1.7184 0.32289,-4.15282 2.47688,-5.21425 -1.85101,-2.59386 -4.949,-5.38005 -8.83643,-5.36694 z m 10.33923,8.71244 c -2.14797,9.72267 5.31249,18.649727 13.62802,25.003597 23.10353,17.47194 53.58358,25.58367 79.93378,38.95552 -1.91622,-2.00657 -6.8691,-4.5378 -6.7642,-8.07339 0.24471,-2.35008 3.12284,-3.66385 5.48444,-4.54081 8.9596,-3.70753 19.353,-2.67612 28.95203,-4.21547 -16.40165,-0.77012 -33.47986,1.49105 -50.12978,2.12767 -3.35711,0.0269 -6.16612,-1.61894 -9.1476,-2.60803 -12.14736,-5.59984 -25.11449,-10.49452 -35.06415,-18.70524 -10.85713,-7.79426 -21.27649,-17.491887 -26.89254,-27.943617 z m 121.8773,31.266547 c -1.10463,0.0156 -2.43047,0.2549 -3.31023,0.21324 -23.21333,0.79794 -47.17355,0.43789 -69.3936,6.83475 1.60918,0.41839 4.27393,-0.92435 6.23467,-0.95743 22.29829,-4.45424 45.58276,-2.68928 68.07459,-5.77192 -0.35956,-0.25861 -0.94263,-0.32848 -1.6054,-0.31861 z m -95.90002,22.15485 c -0.72853,4.58292 0.5549,9.19551 1.42811,13.71123 -6.8234,-4.58639 -18.94473,-5.32325 -24.27747,1.30679 -4.92335,5.80951 -0.88618,13.74528 5.79691,17.41102 10.20587,5.9397 23.11822,7.217 34.16221,11.78039 7.25086,3.33371 13.61861,7.77635 20.758,11.2513 5.86659,3.01624 12.51391,4.81854 18.44346,7.71424 -0.15624,3.5493 2.35889,6.61122 5.13738,9.14903 6.55232,5.99774 14.78278,10.78092 23.90948,13.814 18.43889,7.2031 37.79501,13.33436 58.07127,15.85028 l 3.59953,0.016 c -24.93439,-9.36252 -53.36483,-15.22779 -72.23381,-32.5972 -6.38568,-5.33254 -5.91214,-15.47833 2.92407,-18.81932 13.39683,-5.00738 28.34549,-0.66123 41.6527,2.43928 -2.23236,-2.08698 -5.81526,-3.03249 -8.91046,-4.14288 -13.30384,-3.31424 -28.17471,-4.40279 -41.24801,0.0764 -6.94633,1.87413 -12.24193,7.3335 -12.62883,13.32121 -4.35336,-1.74562 -8.42849,-4.17048 -12.74157,-6.09016 -15.29198,-6.28065 -26.20323,-17.9785 -33.06818,-30.51516 -5.33375,-8.01125 -7.67541,-17.0637 -10.77355,-25.67625 z m -15.39233,6.31276 c -1.30465,-0.01 -2.58694,0.0174 -3.80114,0.0394 -10.47004,1.21718 -18.73732,10.03672 -16.49412,18.65915 1.3984,5.3986 7.35204,8.8592 11.95223,12.35071 -9.483,4.54622 -18.75642,12.30394 -19.28268,21.94092 -0.21141,5.26829 1.35507,10.69551 5.06694,15.08449 6.33214,7.58125 16.59485,12.20878 26.72076,15.71096 30.90032,10.03498 64.96867,9.16695 97.40535,6.48179 -11.32668,-0.5384 -23.57113,0.2365 -35.20172,-0.75627 -27.47534,-1.02858 -56.09501,-6.39311 -77.92302,-20.82976 -8.36149,-6.19168 -14.23364,-16.81207 -8.40596,-25.54722 3.27338,-4.57624 8.14389,-8.32058 13.67297,-11.05136 16.29646,8.19722 38.27006,6.17378 52.95263,17.29113 -12.50861,-12.18104 -34.7418,-10.04956 -49.84246,-19.01044 -6.03613,-3.65357 -12.91938,-8.23559 -13.49732,-14.77126 -0.98601,-6.29123 5.12786,-11.79596 12.15657,-13.55124 4.98823,-1.74578 10.48565,-0.69184 15.61354,0.0722 -3.06527,-1.74219 -7.17902,-2.08669 -11.09286,-2.11318 z m 12.91287,8.33964 c 1.47139,0.0149 2.9263,0.1864 4.11754,0.80465 0.86546,2.90565 2.64585,5.73871 3.12934,8.6868 -4.12657,1.28496 -7.90204,3.45435 -11.93496,4.91864 -5.19642,-3.22002 -7.0063,-13.0368 1.34062,-14.29598 1.04865,-0.0421 2.203,-0.12547 3.34734,-0.11395 z m 7.64646,10.35066 c 2.7959,4.91461 6.6999,10.03373 10.76761,14.5939 -7.81416,-2.49521 -15.71313,-5.29282 -22.24068,-9.64788 2.78417,-2.48047 7.42373,-3.78616 11.47307,-4.94602 z m 148.55462,12.20649 c -1.32921,-0.0142 -2.67042,0.0969 -4.00018,0.34481 -10.93073,0.8016 -20.9859,7.43623 -24.17135,15.97639 5.38359,-7.70094 16.10782,-12.92933 27.12305,-13.29145 5.48856,0.0687 11.44863,2.19531 13.67584,6.55667 3.80277,5.77174 0.26514,12.37061 -2.64266,17.8383 -5.64051,10.41107 -13.15966,21.21316 -10.69292,33.04529 0.0792,0.31166 0.13682,1.30171 0.66738,1.02993 0.68435,-10.23569 4.36887,-20.18131 9.79288,-29.37153 4.24619,-6.28648 8.94443,-13.23077 7.7729,-20.6589 -1.73846,-6.63239 -9.40185,-11.38515 -17.5247,-11.47178 z m -141.80716,13.30545 c -1.80563,3.2678 -0.6637,7.4871 2.7108,9.84867 5.7657,4.77219 13.70882,6.95688 21.3332,8.94476 7.73622,1.6724 15.67256,3.08085 23.71807,2.83096 0.29439,-0.37971 -0.52612,-0.51566 -0.84527,-0.52869 -12.92384,-1.2332 -25.92751,-3.59379 -37.57516,-8.49908 -4.08286,-1.64915 -7.94114,-4.43316 -8.81882,-8.22636 -0.37623,-1.23533 1.13662,-3.61926 -0.52309,-4.37013 z"
           id="path90"
           style="stroke-width:0.257309" />
        <text
           xml:space="preserve"
           style="font-style:normal;font-weight:normal;font-size:76.9532px;line-height:1.25;font-family:sans-serif;fill:#000000;fill-opacity:1;stroke:none;stroke-width:1.92384"
           x="119.93808"
           y="251.62869"
           id="text48"
           transform="matrix(0.85136005,0.00501448,-0.00201519,1.1745793,0,0)"><tspan
             sodipodi:role="line"
             id="tspan46"
             x="119.93808"
             y="251.62869"
             style="font-style:normal;font-variant:normal;font-weight:normal;font-stretch:normal;font-size:76.9532px;font-family:Sacramento;-inkscape-font-specification:'Sacramento, Normal';font-variant-ligatures:normal;font-variant-caps:normal;font-variant-numeric:normal;font-variant-east-asian:normal;stroke-width:1.92384"
             rotate="0 0 0 0 0 0 0 0 0 0 0 0 0 0 0 0 0 0 0">Kavárna s příběhem</tspan></text>
      </g>
    </g>
  </g>
</svg>
